<svg width="116" height="36" viewBox="0 0 116 36" fill="none" xmlns="http://www.w3.org/2000/svg">
<g clip-path="url(#clip0_12_2)">
<path d="M110.4 0H3.7C1.7 0 0 1.6 0 3.7V30.7C0 32.7 1.6 34.4 3.7 34.4H110.5C112.5 34.4 114.2 32.8 114.2 30.7V3.7C114.1 1.6 112.4 0 110.4 0Z" stroke="white" stroke-miterlimit="10"/>
<path d="M26.3 14.1L23.2 17.2L14.2 7.99999C14.7 7.69999 15.2 7.69999 15.8 7.99999L26.3 14.1Z" fill="white"/>
<path d="M26.4 21.4L15.8 27.6C15.2 28 14.4 27.8 14 27.4L23.3 18.2L26.4 21.4Z" fill="white"/>
<path d="M29.9 19.1L26.9 20.9L23.8 17.7L26.9 14.6L30 16.4C30.9 17 30.9 18.5 29.9 19.1Z" fill="white"/>
<path d="M13.4 26.8C13.1 26.5 12.9 26.1 12.9 25.7V9.8C12.9 9.2 13.2 8.8 13.6 8.5L22.6 17.7L13.4 26.8Z" fill="white"/>
<path d="M47.5 19.9H46.3H43.1V21.1H46.2C45.8 22.5 44.6 23.5 43.1 23.5C41.3 23.5 39.9 22.1 39.9 20.3C39.9 18.5 41.3 17.1 43.1 17.1C43.9 17.1 44.7 17.4 45.3 17.9L46.2 17C45.4 16.3 44.3 15.8 43.2 15.8C40.8 15.8 38.8 17.8 38.8 20.2C38.8 22.6 40.8 24.6 43.2 24.6C45.6 24.6 47.6 22.6 47.6 20.2C47.6 20.2 47.6 20.1 47.5 19.9Z" fill="white"/>
<path d="M51 19C49.4 19 48.2 20.3 48.2 21.8C48.2 23.4 49.5 24.6 51 24.6C52.6 24.6 53.8 23.3 53.8 21.8C53.9 20.3 52.6 19 51 19ZM51 23.6C50.1 23.6 49.5 22.9 49.5 21.9C49.5 21 50.2 20.2 51 20.2C51.9 20.2 52.5 20.9 52.5 21.9C52.6 22.8 51.9 23.6 51 23.6Z" fill="white"/>
<path d="M57.3 19C55.7 19 54.5 20.3 54.5 21.8C54.5 23.4 55.8 24.6 57.3 24.6C58.8 24.6 60.1 23.3 60.1 21.8C60.2 20.3 58.9 19 57.3 19ZM57.3 23.6C56.4 23.6 55.8 22.9 55.8 21.9C55.8 21 56.5 20.2 57.3 20.2C58.2 20.2 58.8 20.9 58.8 21.9C58.9 22.8 58.2 23.6 57.3 23.6Z" fill="white"/>
<path d="M67.9 15.9H66.7V24.8H67.9V15.9Z" fill="white"/>
<path d="M72.9 22.6C72.7 23 72.4 23.3 72 23.4C71.6 23.6 71.1 23.6 70.7 23.4C70.4 23.3 70.2 23.1 70 22.9L74.1 21.3L74.2 21C74.2 20.9 74.1 20.8 74.1 20.8C73.8 20.1 73.3 19.5 72.6 19.2C71.9 18.9 71.1 18.9 70.4 19.2C69.7 19.5 69.1 20 68.8 20.7C68.5 21.4 68.5 22.2 68.8 22.9C69.1 23.6 69.6 24.2 70.3 24.5C70.7 24.7 71.1 24.7 71.5 24.7C71.9 24.7 72.2 24.6 72.6 24.5C73.3 24.2 73.8 23.7 74.2 23L74.3 22.8L73 22.4L72.9 22.6ZM72.5 20.6L69.7 21.7C69.7 21.5 69.8 21.4 69.8 21.2C70 20.8 70.3 20.5 70.7 20.3C70.9 20.2 71.1 20.2 71.3 20.2C71.8 20.2 72.2 20.3 72.5 20.6Z" fill="white"/>
<path d="M64.8 19V19.5C64.4 19.2 63.9 19 63.3 19C61.9 19 60.7 20.3 60.7 21.8C60.7 23.4 61.8 24.6 63.3 24.6C63.8 24.6 64.3 24.4 64.8 24.1V24.7C64.8 25.1 64.5 26 63.4 26C62.2 26 61.9 25 61.9 25L60.8 25.5C60.8 25.5 61.2 27.1 63.5 27.1C64.7 27.1 65.4 26.4 65.7 25.7C65.9 25.3 66 24.8 66 24.3V19H64.8ZM63.4 23.6C62.6 23.6 62 22.9 62 21.9C62 21 62.6 20.2 63.4 20.2C64.2 20.2 64.8 20.9 64.8 21.9C64.8 22.8 64.1 23.6 63.4 23.6Z" fill="white"/>
<path d="M79.7 15.9H78.5V24.8H79.7V15.9Z" fill="white"/>
<path d="M81.4 15.9V17.1C82.3 17.1 82.9 17.8 82.9 18.8C82.9 19.7 82.2 20.5 81.4 20.5V21.6C83 21.6 84.2 20.3 84.2 18.8C84.2 17.2 83 15.9 81.4 15.9Z" fill="white"/>
<path d="M81.5 15.9H79.4V17.1H81.5V15.9Z" fill="white"/>
<path d="M81.5 20.5H79.4V21.6H81.5V20.5Z" fill="white"/>
<path d="M86.1 15.9H84.9V24.8H86.1V15.9Z" fill="white"/>
<path d="M90.1 24L90.2 23.8V24.7H91.2V21C91.2 20.7 91.2 20.4 91.1 20.1C91 19.9 90.9 19.7 90.7 19.5C90.5 19.3 90.3 19.2 90 19.2C89.7 19.1 89.4 19.1 89 19.1C88.8 19.1 88.6 19.1 88.4 19.2C88.2 19.2 88 19.3 87.8 19.3C87.6 19.3 87.5 19.4 87.4 19.5L87.5 20.5C87.6 20.5 87.7 20.4 87.8 20.4C87.9 20.3 88.1 20.3 88.3 20.2C88.5 20.1 88.7 20.1 89 20.1C89.2 20.1 89.4 20.1 89.5 20.2C89.6 20.2 89.8 20.3 89.8 20.4C89.9 20.5 89.9 20.6 90 20.7C90 20.8 90.1 21 90.1 21.1V21.5H89.5C89 21.5 88.6 21.5 88.3 21.6C88 21.7 87.7 21.8 87.5 21.9C87.3 22 87.1 22.2 87 22.4C86.9 22.6 86.8 22.9 86.8 23.1C86.8 23.4 86.8 23.6 86.9 23.8C87 24 87.1 24.2 87.3 24.3C87.5 24.4 87.6 24.5 87.9 24.6C88.1 24.7 88.4 24.7 88.6 24.7C88.9 24.7 89.2 24.6 89.5 24.5C89.6 24.4 89.9 24.3 90.1 24ZM89.4 23.7C89.2 23.8 89 23.9 88.8 23.9C88.5 23.9 88.3 23.8 88.2 23.7C88 23.6 88 23.4 88 23.1C88 23 88 22.8 88.1 22.7C88.2 22.6 88.2 22.5 88.4 22.4C88.5 22.3 88.7 22.3 88.8 22.2C89 22.2 89.2 22.1 89.4 22.1H90V23.1C89.8 23.4 89.6 23.6 89.4 23.7Z" fill="white"/>
<path d="M96.1 19.1L95.2 21.2L94.7 22.4L94.3 21.6L93.2 19.1H91.9L93.6 23.1L94 24L93 26.5H94.3L95.2 24.3L95.9 22.7L97.4 19.1H96.1Z" fill="white"/>
<path d="M43.9 13C43.8 13 43.7 13 43.6 12.9C43.5 12.8 43.4 12.7 43.4 12.5V8.5C43.4 8.3 43.5 8.1 43.6 8.1C43.7 8 43.8 8 43.9 8H46L46.1 8.1H46.2L46.3 8.2C46.3 8.2 46.3 8.3 46.4 8.4V8.5C46.4 8.6 46.4 8.6 46.4 8.6V8.7L46.3 8.8L46.2 8.9H46.1L46 9H44.5V10H45.8L45.9 10.1H46L46.1 10.2C46.1 10.2 46.1 10.3 46.2 10.4V10.5C46.2 10.6 46.2 10.6 46.2 10.6V10.7V10.8C46.2 10.9 46.1 10.9 46 10.9H45.9H45.8H44.5V12.1H46.1L46.2 12.2H46.3L46.4 12.3C46.4 12.4 46.5 12.4 46.5 12.5V12.6C46.5 12.7 46.5 12.7 46.5 12.7V12.8C46.5 12.9 46.4 12.9 46.4 12.9H46.3L46 13H43.9Z" fill="white"/>
<path d="M46.1 12.6C46.1 12.7 46.1 12.7 46.1 12.7H44H43.9C43.9 12.7 43.8 12.6 43.8 12.5V8.49999C43.8 8.39999 43.8 8.39999 43.9 8.29999H44H46C46 8.29999 46 8.29999 46 8.39999V8.49999V8.59999C46 8.59999 46 8.59999 46 8.69999H44.2V10.3H45.8C45.8 10.3 45.8 10.3 45.8 10.4V10.5V10.6C45.8 10.6 45.8 10.6 45.8 10.7H44.2V12.5H46C46.1 12.4 46.1 12.4 46.1 12.6C46.1 12.5 46.1 12.5 46.1 12.6Z" fill="white"/>
<path d="M48 13H47.9H47.8L47.7 12.9V12.8V12.7V9.00001H46.6L46.5 8.90001L46.4 8.80001C46.4 8.70001 46.3 8.70001 46.3 8.60001V8.50001C46.3 8.40001 46.3 8.40001 46.3 8.40001V8.30001V8.20001C46.3 8.10001 46.4 8.10001 46.4 8.10001H46.5H46.6H49.7L49.8 8.20001H49.9L50 8.30001C50 8.30001 50 8.40001 50.1 8.50001V8.60001C50.1 8.70001 50.1 8.70001 50.1 8.70001V8.80001L50 8.90001L49.9 9.00001H49.8H49.7H48.7V12.8L48.6 12.9V13H48.5H48.4H48.2H48Z" fill="white"/>
<path d="M49.9 8.49998C49.9 8.59998 49.9 8.59998 49.9 8.59998H48.6V12.6C48.6 12.6 48.6 12.6 48.5 12.6H48.4H48.3C48.3 12.6 48.3 12.6 48.2 12.6V8.59998H46.9C46.9 8.59998 46.9 8.59998 46.9 8.49998C46.9 8.49998 46.9 8.49998 46.9 8.39998V8.29998C46.9 8.29998 46.9 8.29998 46.9 8.19998H50C49.8 8.39998 49.8 8.39998 49.9 8.49998Z" fill="white"/>
<path d="M52.2 13H52L51.9 12.9V12.8V12.7V8.3L52 8.2V8.1L52.1 8H52.2H52.3C52.4 8 52.4 8 52.5 8H52.6C52.7 8 52.7 8.1 52.8 8.1V8.2V8.3V12.7L52.7 12.8V12.9L52.6 13H52.5C52.5 13 52.4 13 52.3 13H52.2Z" fill="white"/>
<path d="M52.6 12.7C52.5 12.7 52.5 12.7 52.6 12.7C52.5 12.8 52.5 12.8 52.5 12.8H52.4H52.3C52.3 12.8 52.3 12.8 52.2 12.8V8.39999C52.2 8.39999 52.2 8.39999 52.3 8.39999H52.4H52.5C52.5 8.39999 52.5 8.39999 52.6 8.39999V12.7Z" fill="white"/>
<path d="M54.7 13H54.6H54.5L54.4 12.9V12.8V12.7V8.99999H53.3L53.2 8.89999H53.1L53 8.79999C53 8.79999 53 8.69999 52.9 8.69999V8.59999C52.9 8.49999 52.9 8.49999 52.9 8.49999V8.39999C52.9 8.29999 53 8.29999 53 8.29999H53.1H53.2H56.3L56.4 8.39999H56.5L56.6 8.49999C56.6 8.49999 56.6 8.59999 56.7 8.69999V8.79999V8.89999V8.99999V9.09999C56.7 9.19999 56.6 9.19999 56.6 9.19999H56.5H56.4H55.4V13L55.3 13.1L55.2 13.2V13H55.1H54.9H54.7Z" fill="white"/>
<path d="M56.5 8.49998C56.5 8.59998 56.5 8.59998 56.5 8.59998H55.2V12.6C55.2 12.6 55.2 12.6 55.1 12.6H55H54.9C54.9 12.6 54.9 12.6 54.8 12.6V8.59998H53.5C53.5 8.59998 53.5 8.59998 53.5 8.49998C53.5 8.49998 53.5 8.49998 53.5 8.39998V8.29998C53.5 8.29998 53.5 8.29998 53.5 8.19998H56.6C56.5 8.39998 56.5 8.39998 56.5 8.49998Z" fill="white"/>
<path d="M60.4 13.1C60 13.1 59.7 13 59.4 12.9C59.1 12.8 58.9 12.6 58.7 12.4C58.5 12.2 58.4 11.9 58.3 11.6C58.2 11.3 58.2 11 58.2 10.6C58.2 10.2 58.2 9.9 58.3 9.6C58.4 9.3 58.5 9 58.7 8.8C58.9 8.6 59.1 8.4 59.4 8.3C59.8 8 60.1 8 60.5 8C60.9 8 61.2 8.1 61.5 8.2C61.8 8.3 62 8.5 62.2 8.7C62.4 8.9 62.5 9.2 62.6 9.5C62.7 9.8 62.7 10.1 62.7 10.5C62.7 10.9 62.7 11.2 62.6 11.5C62.5 11.8 62.4 12.1 62.2 12.3C62 12.5 61.8 12.7 61.5 12.9C61.1 13 60.8 13.1 60.4 13.1ZM60.5 8.9C60.3 8.9 60.1 8.9 59.9 9C59.8 9.1 59.6 9.2 59.5 9.3C59.4 9.4 59.3 9.6 59.3 9.8C59.3 10 59.2 10.2 59.2 10.5C59.2 10.7 59.2 11 59.3 11.2C59.3 11.4 59.4 11.6 59.5 11.7C59.6 11.8 59.7 11.9 59.8 12C59.9 12.1 60.1 12.1 60.4 12.1C60.6 12.1 60.8 12.1 61 12C61.1 11.9 61.3 11.8 61.4 11.7C61.5 11.6 61.6 11.4 61.6 11.2C61.6 11 61.7 10.8 61.7 10.5C61.7 10.3 61.7 10 61.6 9.8C61.6 9.6 61.5 9.4 61.4 9.3C61.3 9.2 61.2 9.1 61 9C60.9 9 60.7 8.9 60.5 8.9Z" fill="white"/>
<path d="M62.4 10.5C62.4 10.9 62.4 11.2 62.3 11.5C62.2 11.8 62.1 12 61.9 12.2C61.7 12.4 61.5 12.6 61.3 12.7C61.1 12.8 60.8 12.9 60.4 12.9C60.1 12.9 59.8 12.8 59.6 12.7C59.4 12.6 59.2 12.4 59 12.3C58.8 12.1 58.7 11.9 58.7 11.6C58.6 11.3 58.6 11 58.6 10.7C58.6 10.4 58.6 9.99999 58.7 9.79999C58.8 9.49999 58.9 9.29999 59.1 9.09999C59.3 8.89999 59.5 8.69999 59.7 8.59999C59.9 8.49999 60.2 8.39999 60.6 8.39999C60.9 8.39999 61.2 8.49999 61.4 8.59999C61.6 8.69999 61.8 8.79999 62 8.99999C62.2 9.19999 62.3 9.39999 62.3 9.69999C62.3 9.79999 62.4 10.1 62.4 10.5ZM61.9 10.5C61.9 10.2 61.9 9.99999 61.8 9.79999C61.8 9.59999 61.7 9.39999 61.6 9.19999C61.5 8.99999 61.3 8.89999 61.2 8.79999C61 8.69999 60.8 8.69999 60.5 8.69999C60.2 8.69999 60 8.79999 59.8 8.89999C59.6 8.99999 59.5 9.09999 59.3 9.29999C59.2 9.49999 59.1 9.69999 59 9.89999C59 9.99999 59 10.3 59 10.5C59 10.8 59 11 59.1 11.3C59.1 11.5 59.2 11.7 59.3 11.9C59.4 12.1 59.6 12.2 59.7 12.3C59.9 12.4 60.1 12.4 60.4 12.4C60.7 12.4 60.9 12.3 61.1 12.2C61.3 12.1 61.4 12 61.6 11.8C61.8 11.6 61.8 11.4 61.8 11.2C61.9 11 61.9 10.8 61.9 10.5Z" fill="white"/>
<path d="M63.4 13H63.3H63.2L63.1 12.9V12.8V12.7V8.49999C63.1 8.29999 63.2 8.19999 63.3 8.09999C63.4 7.99999 63.5 7.99999 63.6 7.99999H63.8C63.9 7.99999 64 7.99999 64 7.99999C64.1 7.99999 64.1 7.99999 64.2 8.09999C64.3 8.09999 64.3 8.19999 64.4 8.29999C64.4 8.29999 64.5 8.39999 64.5 8.49999L65.9 11V8.29999L66 8.19999V8.09999L66.1 7.99999C66.2 7.99999 66.2 7.99999 66.3 7.89999H66.4H66.5C66.5 7.89999 66.6 7.89999 66.7 7.89999H66.8L66.9 7.99999L67 8.09999V8.19999V12.3C67 12.4 67 12.5 67 12.5V12.6L66.9 12.7C66.9 12.7 66.8 12.8 66.7 12.8H66.6C66.4 12.8 66.4 12.8 66.3 12.8C66.2 12.8 66.2 12.7 66.1 12.7C66 12.7 66 12.6 65.9 12.5C65.9 12.4 65.8 12.4 65.8 12.3L64.3 9.69999V12.5L64.2 12.6L64 12.9L63.9 13H63.8C63.8 13 63.7 13 63.6 13H63.4Z" fill="white"/>
<path d="M66.6 12.5V12.6C66.6 12.6 66.6 12.6 66.6 12.7C66.6 12.7 66.6 12.7 66.5 12.7C66.5 12.7 66.5 12.7 66.4 12.7H66.3H66.2C66.2 12.7 66.1 12.7 66.1 12.6L66 12.5C66 12.5 65.9 12.4 65.9 12.3L64.3 9.49999C64.2 9.39999 64.1 9.19999 64.1 9.09999C64 8.99999 63.9 8.79999 63.9 8.69999C63.9 8.89999 63.9 8.99999 63.9 9.19999C63.9 9.39999 63.9 9.49999 63.9 9.69999V12.6C63.9 12.6 63.9 12.6 63.8 12.6H63.7H63.6C63.6 12.6 63.6 12.6 63.5 12.6V8.49999C63.5 8.39999 63.5 8.39999 63.6 8.29999H63.7H63.9C64 8.29999 64 8.29999 64 8.29999H64.1L64.2 8.39999C64.2 8.39999 64.3 8.49999 64.3 8.59999L65.5 10.7C65.6 10.8 65.6 11 65.7 11.1C65.8 11.2 65.8 11.3 65.9 11.5C66 11.6 66 11.7 66.1 11.8C66.2 11.9 66.2 12 66.3 12.1C66.3 11.9 66.3 11.7 66.3 11.5C66.3 11.3 66.3 11.1 66.3 10.9V8.39999C66.3 8.39999 66.3 8.39999 66.4 8.39999H66.5H66.6C66.6 8.39999 66.6 8.39999 66.7 8.39999V12.5H66.6Z" fill="white"/>
<path d="M40.9 13C39.5 13 38.4 11.9 38.4 10.5C38.4 9.1 39.5 8 40.9 8C41.5 8 42.1 8.2 42.5 8.6L42.7 8.8L42 9.6L41.8 9.4C41.5 9.2 41.2 9.1 40.9 9.1C40.1 9.1 39.5 9.7 39.5 10.5C39.5 11.3 40.1 11.9 40.9 11.9C41.5 11.9 42 11.6 42.2 11.1H40.7V10.1H43.3V10.4V10.5C43.3 11.9 42.2 13 40.9 13Z" fill="white"/>
<path d="M38.7 10.5C38.7 11.7 39.7 12.7 40.9 12.7C42.1 12.7 43.1 11.7 43.1 10.5V10.4H41V10.8H42.6V10.9C42.4 11.7 41.7 12.2 40.9 12.2C39.9 12.2 39.2 11.4 39.2 10.5C39.2 9.59999 40 8.79999 40.9 8.79999C41.3 8.79999 41.7 8.89999 42 9.19999L42.3 8.89999C41.9 8.59999 41.4 8.39999 40.9 8.39999C39.7 8.39999 38.7 9.29999 38.7 10.5Z" fill="white"/>
</g>
<defs>
<clipPath id="clip0_12_2">
<rect width="116" height="36" fill="white"/>
</clipPath>
</defs>
</svg>
