<svg width="116" height="36" viewBox="0 0 116 36" fill="none" xmlns="http://www.w3.org/2000/svg">
<g clip-path="url(#clip0_11_2)">
<path d="M110.9 0.5H4.2C2.2 0.5 0.5 2.2 0.5 4.2V31.1C0.5 33.1 2.2 34.8 4.2 34.8H110.9C112.9 34.8 114.6 33.1 114.6 31.1V4.2C114.6 2.2 112.9 0.5 110.9 0.5Z" stroke="white" stroke-miterlimit="10"/>
<path d="M26.8 19.1C26.3 16.3 28.7 14.8 28.9 14.7C28.5 14.2 28.1 13.8 27.7 13.6C26.2 12.7 24.5 12.6 23.4 13.1C22.4 13.5 21.2 13.5 20.2 13.1C19.1 12.6 17.4 12.7 15.9 13.6C14.4 14.5 13 16.5 13.8 20.5C14.5 24.4 17.1 26.8 17.1 26.8C17.1 26.8 18.3 27.9 20 27.2C21 26.8 21.5 26.7 21.7 26.7C21.8 26.7 21.9 26.7 22 26.7C22.2 26.7 22.7 26.8 23.7 27.2C25.3 27.9 26.6 26.8 26.6 26.8C26.6 26.8 28.4 25.1 29.4 22.3C28.4 21.8 27.2 20.9 26.8 19.1Z" fill="white"/>
<path d="M21.3 12.9C21.3 12.9 20.8 8.99999 25.2 8.29999V8.79999C25.1 10.9 23.4 12.7 21.3 12.9Z" fill="white"/>
<path d="M34.8 12.7C34.7 12.7 34.6 12.7 34.5 12.6C34.4 12.5 34.3 12.4 34.3 12.1V6.99999C34.3 6.69999 34.4 6.59999 34.5 6.49999C34.6 6.39999 34.7 6.39999 34.8 6.39999H36C36.5 6.39999 37 6.49999 37.3 6.59999C37.7 6.69999 38 6.99999 38.2 7.19999C38.5 7.49999 38.6 7.79999 38.8 8.19999C39 8.59999 39.1 8.99999 39.1 9.49999C39.1 9.99999 39 10.5 38.9 10.9C38.8 11.3 38.6 11.7 38.3 11.9C38 12.2 37.7 12.4 37.3 12.5C36.9 12.6 36.5 12.7 36 12.7H34.8ZM36 11.6C36.4 11.6 36.7 11.6 36.9 11.5C37.1 11.4 37.3 11.3 37.5 11.1C37.6 10.9 37.8 10.7 37.8 10.5C37.9 10.2 37.9 9.89999 37.9 9.49999C37.9 9.19999 37.9 8.89999 37.8 8.69999C37.7 8.49999 37.6 8.19999 37.5 8.09999C37.4 7.89999 37.2 7.79999 36.9 7.69999C36.7 7.59999 36.4 7.59999 36 7.59999H35.4V11.8H36V11.6Z" fill="white"/>
<path d="M38.8 9.50001C38.8 10 38.7 10.4 38.6 10.8C38.5 11.2 38.3 11.5 38.1 11.7C37.9 11.9 37.6 12.1 37.2 12.3C36.9 12.4 36.4 12.5 36 12.5H34.9C34.8 12.5 34.8 12.5 34.7 12.4C34.6 12.4 34.6 12.3 34.6 12.2V7.00001C34.6 6.90001 34.6 6.80001 34.7 6.80001C34.8 6.80001 34.8 6.70001 34.9 6.70001H36C36.5 6.70001 36.9 6.80001 37.2 6.90001C37.5 7.00001 37.8 7.20001 38 7.50001C38.2 7.70001 38.4 8.00001 38.5 8.40001C38.7 8.70001 38.8 9.00001 38.8 9.50001ZM38.2 9.50001C38.2 9.20001 38.2 8.90001 38.1 8.60001C38 8.30001 37.9 8.00001 37.7 7.80001C37.5 7.60001 37.3 7.40001 37 7.30001C36.7 7.20001 36.4 7.10001 36 7.10001H35.1V11.9H36C36.4 11.9 36.7 11.9 37 11.8C37.3 11.7 37.5 11.6 37.7 11.4C37.9 11.2 38 10.9 38.1 10.6C38.2 10.3 38.2 9.90001 38.2 9.50001Z" fill="white"/>
<path d="M41.6 12.8C41.2 12.8 40.9 12.7 40.7 12.6C40.4 12.5 40.2 12.3 40 12.1C39.8 11.9 39.7 11.6 39.6 11.3C39.5 11 39.5 10.7 39.5 10.3C39.5 9.99999 39.5 9.59999 39.6 9.29999C39.7 8.99999 39.8 8.69999 40 8.49999C40.2 8.29999 40.4 8.09999 40.7 7.99999C41 7.89999 41.3 7.79999 41.7 7.79999C42 7.79999 42.4 7.89999 42.6 7.99999C42.9 8.09999 43.1 8.29999 43.3 8.49999C43.5 8.69999 43.6 8.99999 43.7 9.29999C43.8 9.59999 43.8 9.89999 43.8 10.3C43.8 10.6 43.8 11 43.7 11.3C43.6 11.6 43.5 11.9 43.3 12.1C43.1 12.3 42.9 12.5 42.6 12.6C42.3 12.7 41.9 12.8 41.6 12.8ZM41.6 8.89999C41.4 8.89999 41.2 8.89999 41.1 8.99999C41 9.09999 40.9 9.19999 40.8 9.29999C40.7 9.39999 40.6 9.59999 40.6 9.69999C40.6 9.89999 40.5 10.1 40.5 10.3C40.5 10.5 40.5 10.7 40.6 10.9C40.6 11.1 40.7 11.2 40.8 11.3C40.9 11.4 41 11.5 41.1 11.6C41.2 11.7 41.4 11.7 41.6 11.7C41.8 11.7 42 11.7 42.1 11.6C42.2 11.5 42.3 11.4 42.4 11.3C42.5 11.2 42.6 11 42.6 10.9C42.6 10.7 42.7 10.5 42.7 10.3C42.7 10.1 42.7 9.89999 42.6 9.69999C42.6 9.49999 42.5 9.39999 42.4 9.29999C42.3 9.19999 42.2 9.09999 42.1 8.99999C42 8.89999 41.8 8.89999 41.6 8.89999Z" fill="white"/>
<path d="M43.5 10.3C43.5 10.6 43.5 10.9 43.4 11.2C43.3 11.5 43.2 11.7 43 11.9C42.8 12.1 42.6 12.3 42.4 12.4C42.2 12.5 41.9 12.6 41.5 12.6C41.2 12.6 40.9 12.6 40.7 12.5C40.5 12.4 40.3 12.3 40.1 12.1C39.9 11.9 39.8 11.7 39.7 11.4C39.6 11.1 39.6 10.8 39.6 10.5C39.6 10.2 39.6 9.90001 39.7 9.60001C39.9 9.20001 40 9.00001 40.2 8.80001C40.4 8.60001 40.6 8.50001 40.8 8.30001C41 8.20001 41.3 8.10001 41.7 8.10001C42 8.10001 42.3 8.10001 42.5 8.20001C42.7 8.30001 42.9 8.40001 43.1 8.60001C43.3 8.80001 43.4 9.00001 43.5 9.30001C43.5 9.70001 43.5 9.90001 43.5 10.3ZM43 10.3C43 10.1 43 9.90001 42.9 9.70001C42.9 9.50001 42.8 9.30001 42.7 9.20001C42.6 9.00001 42.5 8.90001 42.3 8.80001C42.1 8.70001 41.9 8.70001 41.7 8.70001C41.5 8.70001 41.3 8.70001 41.1 8.80001C40.9 8.90001 40.8 9.00001 40.7 9.20001C40.6 9.40001 40.5 9.50001 40.5 9.70001C40.4 9.90001 40.4 10.1 40.4 10.4C40.4 10.6 40.4 10.8 40.5 11.1C40.5 11.3 40.6 11.5 40.7 11.6C40.8 11.8 40.9 11.9 41.1 12C41.3 12.1 41.5 12.1 41.7 12.1C41.9 12.1 42.1 12.1 42.3 12C42.5 11.9 42.6 11.8 42.7 11.6C42.8 11.4 42.9 11.3 42.9 11.1C42.9 10.8 43 10.6 43 10.3Z" fill="white"/>
<path d="M48.2 12.7C48.1 12.7 48.1 12.7 48 12.7H47.9L47.8 12.6C47.7 12.6 47.7 12.5 47.7 12.4L47.1 10.2L46.5 12.5L46.4 12.6C46.3 12.6 46.3 12.7 46.2 12.7C46.2 12.7 46.1 12.7 46 12.7C46 12.7 45.9 12.7 45.8 12.7C45.7 12.7 45.7 12.7 45.6 12.7C45.5 12.7 45.5 12.7 45.4 12.7H45.3L45.2 12.6C45.1 12.5 45.1 12.5 45.1 12.4L43.8 8.39999V8.29999V8.19999L43.9 8.09999C44 7.99999 44.1 7.99999 44.2 7.89999H44.3H44.4C44.5 7.89999 44.6 7.89999 44.6 7.89999H44.7C44.9 7.99999 44.9 7.99999 45 8.09999V8.19999L45.8 10.7L46.5 8.09999L46.6 7.99999H46.7H46.8C46.9 7.99999 46.9 7.99999 47 7.99999C47.1 7.99999 47.1 7.99999 47.2 7.99999H47.3C47.4 7.99999 47.4 8.09999 47.5 8.19999V8.29999L48.3 10.9L49.1 8.29999L49.2 8.19999C49.3 7.99999 49.3 7.99999 49.4 7.99999H49.5C49.6 7.99999 49.6 7.99999 49.7 7.99999C49.8 7.99999 49.9 7.99999 49.9 7.99999H50C50.1 7.99999 50.1 8.09999 50.2 8.19999V8.29999V8.39999V8.49999L48.9 12.5L48.8 12.6C48.8 12.6 48.7 12.7 48.6 12.7C48.5 12.7 48.5 12.7 48.4 12.7C48.4 12.7 48.3 12.7 48.2 12.7Z" fill="white"/>
<path d="M50 8.30001C50 8.40001 50 8.40001 50 8.40001L48.8 12.3C48.8 12.3 48.8 12.3 48.8 12.4C48.8 12.4 48.8 12.4 48.7 12.4H48.6C48.6 12.4 48.5 12.4 48.4 12.4C48.3 12.4 48.3 12.4 48.2 12.4H48.1H48C48 12.4 48 12.4 48 12.3L47.1 9.10001L46.2 12.3C46.2 12.3 46.2 12.3 46.2 12.4C46.2 12.4 46.2 12.4 46.1 12.4H46C46 12.4 45.9 12.4 45.8 12.4C45.7 12.4 45.7 12.4 45.6 12.4H45.5C45.5 12.4 45.5 12.4 45.4 12.4C45.4 12.4 45.4 12.4 45.4 12.3L44.2 8.40001C44.2 8.40001 44.2 8.40001 44.2 8.30001C44.2 8.30001 44.2 8.30001 44.2 8.20001C44.2 8.20001 44.2 8.20001 44.2 8.10001C44.2 8.10001 44.2 8.10001 44.3 8.10001H44.4C44.5 8.10001 44.5 8.10001 44.6 8.10001H44.7C44.7 8.10001 44.7 8.10001 44.7 8.20001L45.8 11.7L46.8 8.20001C46.8 8.20001 46.8 8.20001 46.8 8.10001C46.8 8.10001 46.8 8.10001 46.9 8.10001H47C47.1 8.10001 47.1 8.10001 47.1 8.10001H47.2C47.2 8.10001 47.2 8.10001 47.2 8.20001L48.2 11.7L49.3 8.20001C49.3 8.20001 49.3 8.20001 49.3 8.10001C49.3 8.10001 49.3 8.10001 49.4 8.10001H49.5H49.6C49.9 8.20001 49.9 8.20001 50 8.30001C49.9 8.20001 49.9 8.20001 50 8.30001Z" fill="white"/>
<path d="M54 12.7C53.9 12.7 53.9 12.7 53.8 12.7H53.7C53.6 12.7 53.6 12.6 53.5 12.5V12.4V12.3V9.89999C53.5 9.69999 53.5 9.49999 53.5 9.39999C53.5 9.29999 53.4 9.19999 53.4 9.09999C53.2 8.99999 53.1 8.99999 53 8.99999C52.9 8.99999 52.8 8.89999 52.7 8.89999C52.6 8.89999 52.4 8.99999 52.3 9.09999C52.1 9.19999 52 9.39999 51.8 9.59999V12.4L51.7 12.5C51.7 12.6 51.6 12.6 51.5 12.7H51.4C51.4 12.7 51.3 12.7 51.2 12.7C51.1 12.7 51.1 12.7 51 12.7H50.9C50.8 12.7 50.7 12.6 50.7 12.5V12.4V12.3V8.29999V8.19999C50.7 8.09999 50.8 8.09999 50.9 7.99999H51C51.1 7.99999 51.1 7.99999 51.2 7.99999C51.3 7.99999 51.4 7.99999 51.4 7.99999H51.6C51.7 7.99999 51.7 8.09999 51.8 8.19999V8.29999C51.9 8.19999 52 8.19999 52 8.09999C52.3 7.99999 52.5 7.89999 52.8 7.89999C53.1 7.89999 53.4 7.99999 53.6 8.09999C53.8 8.19999 54 8.39999 54.1 8.49999C54.2 8.69999 54.3 8.89999 54.4 9.09999C54.5 9.29999 54.5 9.59999 54.5 9.89999V12.4L54.4 12.5C54.4 12.6 54.3 12.6 54.2 12.7H54.1H54Z" fill="white"/>
<path d="M54.2 12.3C54.2 12.4 54.2 12.4 54.2 12.3C54.1 12.4 54.1 12.4 54.1 12.4H54C53.9 12.4 53.9 12.4 53.9 12.4H53.8V9.9C53.8 9.7 53.8 9.5 53.7 9.3C53.7 9.1 53.6 9 53.5 8.9C53.4 8.8 53.3 8.7 53.2 8.6C53.1 8.5 52.9 8.5 52.8 8.5C52.6 8.5 52.4 8.6 52.2 8.7C52 8.8 51.8 9.1 51.6 9.3V12.2C51.6 12.2 51.6 12.2 51.5 12.2H51.4C51.3 12.2 51.3 12.2 51.3 12.2H51.2V8.2C51.2 8.2 51.2 8.2 51.3 8.2H51.4H51.5H51.6V8.8C51.8 8.5 52.1 8.4 52.3 8.2C52.5 8.1 52.7 8 53 8C53.3 8 53.5 8 53.7 8.1C53.9 8.2 54 8.3 54.1 8.5C54 8.8 54.1 9 54.1 9.2C54.1 9.4 54.2 9.6 54.2 9.9V12.3Z" fill="white"/>
<path d="M55.9 12.7C55.8 12.7 55.8 12.7 55.7 12.7H55.6C55.5 12.7 55.4 12.6 55.4 12.5V12.4V12.3V6.3V6.2C55.4 6.1 55.5 6.1 55.6 6H55.7C55.7 6 55.8 6 55.9 6C56 6 56 6 56.1 6H56.2C56.3 6 56.3 6.1 56.4 6.2V6.3V6.4V12.4L56.3 12.5C56.3 12.6 56.2 12.6 56.1 12.7H56C56.1 12.7 56 12.7 55.9 12.7Z" fill="white"/>
<path d="M56.2 12.3C56.2 12.4 56.2 12.4 56.2 12.3C56.1 12.4 56.1 12.4 56.1 12.4H56C55.9 12.4 55.9 12.4 55.9 12.4H55.8V6.39999C55.8 6.39999 55.8 6.39999 55.9 6.39999H56C56.1 6.39999 56.1 6.39999 56.1 6.39999H56.2V12.3Z" fill="white"/>
<path d="M59.3 12.8C58.9 12.8 58.6 12.7 58.4 12.6C58.1 12.5 57.9 12.3 57.7 12.1C57.5 11.9 57.4 11.6 57.3 11.3C57.2 11 57.2 10.7 57.2 10.3C57.2 9.99999 57.2 9.59999 57.3 9.29999C57.4 8.99999 57.5 8.69999 57.7 8.49999C57.9 8.29999 58.1 8.09999 58.4 7.99999C58.7 7.89999 59 7.79999 59.4 7.79999C59.7 7.79999 60.1 7.89999 60.3 7.99999C60.6 8.09999 60.8 8.29999 61 8.49999C61.2 8.69999 61.3 8.99999 61.4 9.29999C61.5 9.59999 61.5 9.89999 61.5 10.3C61.5 10.6 61.5 11 61.4 11.3C61.3 11.6 61.2 11.9 61 12.1C60.8 12.3 60.6 12.5 60.3 12.6C60 12.7 59.6 12.8 59.3 12.8ZM59.3 8.89999C59.1 8.89999 58.9 8.89999 58.8 8.99999C58.7 9.09999 58.6 9.19999 58.5 9.29999C58.4 9.39999 58.3 9.59999 58.3 9.69999C58.3 9.89999 58.2 10.1 58.2 10.3C58.2 10.5 58.2 10.7 58.3 10.9C58.3 11.1 58.4 11.2 58.5 11.3C58.6 11.4 58.7 11.5 58.8 11.6C58.9 11.7 59.1 11.7 59.3 11.7C59.5 11.7 59.7 11.7 59.8 11.6C59.9 11.5 60 11.4 60.1 11.3C60.2 11.2 60.3 11 60.3 10.9C60.3 10.7 60.4 10.5 60.4 10.3C60.4 10.1 60.4 9.89999 60.3 9.69999C60.3 9.49999 60.2 9.39999 60.1 9.29999C60 9.19999 59.9 9.09999 59.8 8.99999C59.7 8.89999 59.5 8.89999 59.3 8.89999Z" fill="white"/>
<path d="M61.2 10.3C61.2 10.6 61.2 10.9 61.1 11.2C61 11.5 60.9 11.7 60.7 11.9C60.5 12.1 60.3 12.3 60.1 12.4C59.9 12.5 59.6 12.6 59.2 12.6C58.9 12.6 58.6 12.6 58.4 12.5C58.2 12.4 58 12.3 57.8 12.1C57.6 11.9 57.5 11.7 57.4 11.4C57.3 11.1 57.3 10.8 57.3 10.5C57.3 10.2 57.3 9.90001 57.4 9.60001C57.5 9.30001 57.6 9.10001 57.8 8.90001C58 8.70001 58.2 8.60001 58.4 8.40001C58.6 8.30001 58.9 8.20001 59.3 8.20001C59.6 8.20001 59.9 8.20001 60.1 8.30001C60.3 8.40001 60.5 8.50001 60.7 8.70001C60.9 8.90001 61 9.10001 61.1 9.40001C61.2 9.70001 61.2 9.90001 61.2 10.3ZM60.7 10.3C60.7 10.1 60.7 9.90001 60.6 9.70001C60.5 9.50001 60.5 9.30001 60.4 9.20001C60.3 9.00001 60.1 8.80001 60 8.80001C59.8 8.70001 59.6 8.70001 59.4 8.70001C59.2 8.70001 59 8.70001 58.8 8.80001C58.6 8.90001 58.5 9.00001 58.4 9.20001C58.3 9.40001 58.2 9.50001 58.2 9.70001C58.1 9.90001 58.1 10.1 58.1 10.4C58.1 10.6 58.1 10.8 58.2 11.1C58.2 11.3 58.3 11.5 58.4 11.6C58.5 11.7 58.6 11.9 58.8 12C58.8 12 59 12 59.3 12C59.5 12 59.7 12 59.9 11.9C60.1 11.8 60.2 11.7 60.3 11.5C60.4 11.3 60.5 11.2 60.5 11C60.6 10.8 60.7 10.6 60.7 10.3Z" fill="white"/>
<path d="M63.5 12.8C63.3 12.8 63 12.8 62.8 12.7C62.6 12.6 62.4 12.5 62.3 12.4C62.2 12.3 62 12.1 62 11.9C61.9 11.7 61.9 11.5 61.9 11.3C61.9 11 62 10.8 62.1 10.6C62.2 10.4 62.4 10.2 62.6 10.1C62.8 9.99999 63 9.89999 63.3 9.79999C63.6 9.69999 63.8 9.69999 64.2 9.69999H64.5C64.5 9.59999 64.5 9.39999 64.5 9.29999C64.5 9.19999 64.4 9.09999 64.4 9.09999C64.2 8.99999 64.1 8.99999 64 8.99999C63.9 8.99999 63.8 8.99999 63.6 8.99999C63.5 8.99999 63.3 8.99999 63.2 9.09999C63.2 8.99999 63.1 8.99999 63 9.09999C62.9 9.09999 62.8 9.19999 62.8 9.19999C62.7 9.29999 62.6 9.29999 62.5 9.29999H62.4H62.3H62.2L62.1 9.19999C62 9.09999 62 8.99999 62 8.99999V8.89999C62 8.79999 62 8.69999 62 8.69999C62 8.59999 62.1 8.49999 62.1 8.39999C62.2 8.29999 62.2 8.29999 62.4 8.19999C62.5 8.09999 62.6 8.09999 62.8 7.99999C62.9 7.99999 63.1 7.89999 63.2 7.89999C63.4 7.89999 63.5 7.89999 63.7 7.89999C64 7.89999 64.3 7.89999 64.5 7.99999C64.7 8.09999 64.9 8.19999 65.1 8.39999C65.3 8.59999 65.4 8.79999 65.4 8.99999C65.5 9.19999 65.5 9.39999 65.5 9.69999V12.5L65.4 12.7C65.3 12.7 65.3 12.8 65.2 12.8C65.2 12.8 65.1 12.8 65 12.8C64.9 12.8 64.9 12.8 64.8 12.8H64.7L64.6 12.7L64.5 12.6C64.4 12.6 64.4 12.7 64.3 12.7C64 12.7 63.7 12.8 63.5 12.8ZM63.9 10.7C63.7 10.7 63.5 10.7 63.4 10.7C63.3 10.7 63.2 10.8 63.1 10.8C63 10.8 63 10.9 63 11C63 11.1 63 11.1 63 11.2C63 11.4 63.1 11.5 63.1 11.5C63.2 11.6 63.3 11.6 63.5 11.6C63.7 11.6 63.8 11.6 63.9 11.5C64 11.4 64.2 11.3 64.3 11.1V10.6H63.9V10.7Z" fill="white"/>
<path d="M65.2 12.3C65.2 12.4 65.1 12.4 65.1 12.4H65C64.9 12.4 64.9 12.4 64.9 12.4H64.8C64.8 12.4 64.8 12.4 64.8 12.3V11.9C64.6 12.1 64.4 12.2 64.2 12.4C64 12.5 63.8 12.6 63.5 12.6C63.3 12.6 63.1 12.6 62.9 12.5C62.7 12.4 62.6 12.4 62.5 12.3C62.4 12.2 62.3 12.1 62.2 11.9C62.1 11.8 62.1 11.6 62.1 11.4C62.1 11.2 62.1 11 62.2 10.8C62.3 10.6 62.4 10.5 62.6 10.4C62.8 10.3 63 10.2 63.2 10.2C63.5 9.99999 63.7 9.99999 64 9.99999H64.6V9.69999C64.6 9.49999 64.6 9.39999 64.5 9.19999C64.5 9.09999 64.4 8.99999 64.3 8.89999C64.2 8.79999 64.1 8.69999 64 8.69999C63.9 8.69999 63.7 8.59999 63.5 8.59999C63.3 8.59999 63.2 8.59999 63 8.69999C62.9 8.69999 62.7 8.79999 62.6 8.79999C62.5 8.89999 62.4 8.89999 62.3 8.89999C62.5 8.99999 62.4 8.99999 62.4 8.99999C62.4 8.99999 62.4 8.99999 62.4 8.89999V8.79999C62.4 8.69999 62.4 8.69999 62.4 8.69999C62.4 8.69999 62.4 8.59999 62.5 8.59999C62.5 8.59999 62.6 8.49999 62.7 8.49999C62.8 8.39999 62.9 8.39999 63 8.39999C63.1 8.39999 63.3 8.29999 63.4 8.29999C63.5 8.29999 63.7 8.29999 63.8 8.29999C64.1 8.29999 64.3 8.29999 64.5 8.39999C64.7 8.49999 64.8 8.59999 65 8.69999C65 8.69999 65.1 8.79999 65.1 8.99999C65.2 9.19999 65.2 9.39999 65.2 9.59999V12.3ZM64.7 10.4H64C63.8 10.4 63.6 10.4 63.4 10.5C63.2 10.5 63.1 10.6 63 10.7C62.9 10.8 62.8 10.9 62.8 11C62.7 11.1 62.7 11.2 62.7 11.4C62.7 11.6 62.8 11.8 62.9 12C63 12 63.2 12 63.5 12C63.7 12 63.9 11.9 64.1 11.8C64.3 11.7 64.5 11.5 64.7 11.3V10.4Z" fill="white"/>
<path d="M68 12.8C67.7 12.8 67.4 12.7 67.1 12.6C66.9 12.5 66.7 12.3 66.5 12C66.4 11.8 66.2 11.5 66.2 11.2C66.1 10.9 66.1 10.6 66.1 10.3C66.1 9.9 66.1 9.6 66.2 9.3C66.3 9 66.4 8.7 66.6 8.5C66.8 8.3 67 8.2 67.2 8C67.5 7.9 67.7 7.8 68.1 7.8C68.4 7.8 68.7 7.9 68.9 8C69 8 69 8.1 69.1 8.1V6.3V6.2L69.2 6.1L69.3 6H69.4C69.4 6 69.5 6 69.6 6C69.7 6 69.7 6 69.8 6H70C70.1 6 70.1 6.1 70.2 6.2V6.3V6.4V12.4V12.5C70.2 12.6 70.1 12.6 70 12.7H69.9C69.9 12.7 69.8 12.7 69.7 12.7C69.6 12.7 69.5 12.7 69.5 12.7H69.4C69.3 12.7 69.3 12.6 69.2 12.6V12.5V12.4C69.1 12.5 69.1 12.5 69 12.5C68.6 12.7 68.3 12.8 68 12.8ZM68.1 8.9C68 8.9 67.8 8.9 67.7 9C67.6 9.1 67.5 9.2 67.4 9.3C67.3 9.4 67.3 9.6 67.2 9.8C67.2 10 67.1 10.2 67.1 10.3C67.1 10.5 67.1 10.7 67.1 10.9C67.1 11.1 67.2 11.2 67.3 11.4C67.4 11.5 67.4 11.6 67.5 11.7C67.6 11.8 67.7 11.8 67.9 11.8C68 11.8 68 11.8 68.1 11.8C68.2 11.8 68.2 11.7 68.3 11.7C68.4 11.6 68.5 11.6 68.6 11.5C68.7 11.4 68.8 11.3 68.9 11.2V9.5C68.7 9.3 68.6 9.1 68.4 9C68.4 9 68.2 8.9 68.1 8.9Z" fill="white"/>
<path d="M69.9 12.3C69.8 12.4 69.9 12.4 69.9 12.3C69.8 12.4 69.8 12.4 69.8 12.4H69.7H69.6H69.5C69.5 12.4 69.5 12.4 69.5 12.3V11.7C69.3 11.9 69.1 12.1 68.8 12.2C68.6 12.3 68.3 12.4 68.1 12.4C67.8 12.4 67.6 12.3 67.4 12.2C67.2 12.1 67 11.9 66.9 11.7C66.8 11.5 66.7 11.3 66.6 11C66.5 10.7 66.5 10.5 66.5 10.2C66.5 9.89999 66.5 9.59999 66.6 9.29999C66.7 8.99999 66.8 8.79999 66.9 8.59999C67 8.39999 67.2 8.29999 67.4 8.19999C67.6 8.09999 67.9 7.99999 68.1 7.99999C68.3 7.99999 68.6 8.09999 68.8 8.19999C69 8.29999 69.2 8.49999 69.4 8.69999V6.39999C69.4 6.39999 69.4 6.39999 69.5 6.39999H69.6C69.7 6.39999 69.7 6.39999 69.7 6.39999H69.8V12.3H69.9ZM69.4 9.39999C69.2 9.09999 69 8.89999 68.8 8.79999C68.6 8.69999 68.4 8.59999 68.2 8.59999C68 8.59999 67.8 8.59999 67.7 8.69999C67.6 8.79999 67.4 8.89999 67.3 9.09999C67.1 9.29999 67 9.49999 67 9.69999C67 9.89999 66.9 10.1 66.9 10.3C66.9 10.5 66.9 10.7 67 10.9C67 11.1 67.1 11.3 67.2 11.5C67.3 11.7 67.4 11.8 67.5 11.9C67.7 12 67.8 12 68 12C68.1 12 68.2 12 68.3 12C68.4 12 68.5 11.9 68.6 11.9C68.7 11.8 68.8 11.7 68.9 11.6C69 11.5 69.1 11.4 69.3 11.2V9.39999H69.4Z" fill="white"/>
<path d="M75 12.8C74.6 12.8 74.3 12.7 74.1 12.6C73.8 12.5 73.6 12.3 73.4 12.1C73.2 11.9 73.1 11.6 73 11.3C72.9 11 72.9 10.7 72.9 10.3C72.9 9.99999 72.9 9.59999 73 9.29999C73.1 8.99999 73.2 8.69999 73.4 8.49999C73.6 8.29999 73.8 8.09999 74.1 7.99999C74.4 7.89999 74.7 7.79999 75.1 7.79999C75.4 7.79999 75.8 7.89999 76 7.99999C76.3 8.09999 76.5 8.29999 76.7 8.49999C76.9 8.69999 77 8.99999 77.1 9.29999C77.2 9.59999 77.2 9.89999 77.2 10.3C77.2 10.6 77.2 11 77.1 11.3C77 11.6 76.9 11.9 76.7 12.1C76.5 12.3 76.3 12.5 76 12.6C75.7 12.7 75.4 12.8 75 12.8ZM75 8.89999C74.8 8.89999 74.6 8.89999 74.5 8.99999C74.4 9.09999 74.3 9.19999 74.2 9.29999C74.1 9.39999 74 9.59999 74 9.69999C74 9.89999 73.9 10.1 73.9 10.3C73.9 10.5 73.9 10.7 74 10.9C74 11.1 74.1 11.2 74.2 11.3C74.3 11.4 74.4 11.5 74.5 11.6C74.6 11.7 74.8 11.7 75 11.7C75.2 11.7 75.4 11.7 75.5 11.6C75.6 11.5 75.7 11.4 75.8 11.3C75.9 11.2 76 11 76 10.9C76 10.7 76.1 10.5 76.1 10.3C76.1 10.1 76.1 9.89999 76 9.69999C76 9.49999 75.9 9.39999 75.8 9.29999C75.7 9.19999 75.6 9.09999 75.5 8.99999C75.4 8.89999 75.2 8.89999 75 8.89999Z" fill="white"/>
<path d="M76.9 10.3C76.9 10.6 76.9 10.9 76.8 11.2C76.7 11.5 76.6 11.7 76.4 11.9C76.2 12.1 76 12.3 75.8 12.4C75.6 12.5 75.3 12.6 74.9 12.6C74.6 12.6 74.3 12.6 74.1 12.5C73.9 12.4 73.7 12.3 73.5 12.1C73.3 11.9 73.2 11.7 73.1 11.4C73 11.1 73 10.8 73 10.5C73 10.2 73 9.90001 73.1 9.60001C73.2 9.30001 73.3 9.10001 73.5 8.90001C73.7 8.70001 73.9 8.60001 74.1 8.40001C74.3 8.30001 74.6 8.20001 75 8.20001C75.3 8.20001 75.6 8.20001 75.8 8.30001C76 8.40001 76.2 8.50001 76.4 8.70001C76.6 8.90001 76.7 9.10001 76.8 9.40001C76.9 9.70001 76.9 9.90001 76.9 10.3ZM76.4 10.3C76.4 10.1 76.4 9.90001 76.3 9.70001C76.3 9.50001 76.2 9.30001 76.1 9.20001C76 9.00001 75.9 8.80001 75.7 8.80001C75.5 8.70001 75.3 8.70001 75.1 8.70001C74.9 8.70001 74.7 8.70001 74.5 8.80001C74.3 8.90001 74.2 9.00001 74.1 9.20001C74 9.40001 73.9 9.50001 73.9 9.70001C73.8 9.90001 73.8 10.1 73.8 10.4C73.8 10.6 73.8 10.8 73.9 11.1C73.9 11.3 74 11.5 74.1 11.6C74.2 11.8 74.3 11.9 74.5 12C74.5 12 74.8 12 75 12C75.2 12 75.4 12 75.6 11.9C75.8 11.8 75.9 11.7 76 11.5C76.1 11.3 76.2 11.2 76.2 11C76.4 10.8 76.4 10.6 76.4 10.3Z" fill="white"/>
<path d="M81.1 12.7C81 12.7 81 12.7 80.9 12.7H80.8C80.7 12.7 80.7 12.6 80.6 12.5V12.4V12.3V9.89999C80.6 9.69999 80.6 9.49999 80.6 9.39999C80.6 9.29999 80.5 9.19999 80.5 9.09999C80.3 8.99999 80.3 8.99999 80.2 8.99999C80.1 8.99999 80 8.89999 79.9 8.89999C79.8 8.89999 79.6 8.99999 79.5 9.09999C79.3 9.19999 79.2 9.39999 79 9.59999V12.4L78.9 12.5C78.9 12.6 78.8 12.6 78.7 12.7H78.6C78.6 12.7 78.5 12.7 78.4 12.7C78.3 12.7 78.3 12.7 78.2 12.7H78.1C78 12.7 77.9 12.6 77.9 12.5V12.4V12.3V8.29999V8.19999C77.9 8.09999 78 7.99999 78 7.99999H78.1C78.2 7.99999 78.2 7.99999 78.3 7.99999C78.4 7.99999 78.4 7.99999 78.5 7.99999H78.6H78.7C78.8 7.99999 78.8 8.09999 78.8 8.19999V8.29999C78.9 8.19999 79 8.19999 79 8.09999C79.3 7.99999 79.5 7.89999 79.8 7.89999C80.1 7.89999 80.4 7.99999 80.6 8.09999C80.8 8.19999 81 8.39999 81.1 8.49999C81.2 8.69999 81.3 8.89999 81.4 9.09999C81.5 9.29999 81.5 9.59999 81.5 9.89999V12.4L81.4 12.5C81.4 12.6 81.3 12.6 81.2 12.7H81.1C81.2 12.7 81.2 12.7 81.1 12.7Z" fill="white"/>
<path d="M81.4 12.3C81.3 12.4 81.3 12.4 81.4 12.3C81.3 12.4 81.3 12.4 81.3 12.4H81.2C81.1 12.4 81.1 12.4 81.1 12.4H81V9.9C81 9.7 81 9.5 80.9 9.3C80.9 9.1 80.8 9 80.7 8.9C80.6 8.8 80.5 8.7 80.4 8.6C80.3 8.5 80.1 8.5 80 8.5C79.8 8.5 79.6 8.6 79.4 8.7C79.2 8.8 79 9.1 78.8 9.3V12.2C78.8 12.2 78.8 12.2 78.7 12.2H78.6C78.5 12.2 78.5 12.2 78.5 12.2H78.4V8.2C78.4 8.2 78.4 8.2 78.5 8.2H78.6C78.7 8.2 78.7 8.2 78.7 8.2H78.8V8.8C79 8.5 79.3 8.4 79.5 8.2C79.7 8.1 79.9 8 80.2 8C80.5 8 80.7 8 80.9 8.1C81.1 8.2 81.2 8.3 81.3 8.5C81.4 8.7 81.5 8.8 81.5 9C81.5 9.2 81.6 9.4 81.6 9.7V12.3H81.4Z" fill="white"/>
<path d="M86.1 12.8C85.9 12.8 85.7 12.8 85.5 12.7C85.3 12.6 85.2 12.5 85 12.4C84.9 12.3 84.8 12.1 84.7 11.9C84.7 11.7 84.6 11.5 84.6 11.2V8.99999H84.3C84.2 8.99999 84 8.89999 84 8.79999C84 8.69999 84 8.59999 84 8.39999V8.19999C84 8.09999 84 8.09999 84.1 7.99999V7.89999L84.2 7.99999C84.3 7.99999 84.3 7.99999 84.4 7.99999H84.7V7.19999V7.09999C84.7 7.09999 84.8 6.99999 84.9 6.89999H85C85 6.89999 85.1 6.89999 85.2 6.89999C85.3 6.89999 85.3 6.89999 85.4 6.89999H85.5H85.6C85.7 6.89999 85.7 6.99999 85.8 6.99999V7.09999V7.19999V7.89999H86.7H86.8C86.9 7.99999 87 8.09999 87 8.09999V8.19999C87 8.19999 87 8.29999 87 8.39999C87 8.49999 87 8.59999 86.9 8.69999C86.9 8.89999 86.8 8.99999 86.7 8.99999H85.9V11.1C85.9 11.4 86 11.6 86 11.6C86 11.6 86 11.7 86.2 11.7H86.3H86.4L86.6 11.6H86.8C86.9 11.6 86.9 11.6 87 11.6L87.1 11.7L87.2 11.8V11.9V12C87.2 12.1 87.2 12.2 87.2 12.2C87.2 12.3 87.1 12.4 87.1 12.4C87 12.5 87 12.5 86.9 12.5C86.8 12.5 86.8 12.5 86.7 12.6C86.6 12.6 86.6 12.6 86.5 12.6C86.3 12.8 86.2 12.8 86.1 12.8Z" fill="white"/>
<path d="M86.8 12.1C86.8 12.2 86.8 12.2 86.8 12.3V12.4C86.8 12.4 86.7 12.4 86.7 12.5H86.6C86.5 12.5 86.5 12.5 86.4 12.5C86.3 12.5 86.3 12.5 86.2 12.5C86 12.5 85.8 12.5 85.7 12.4C85.6 12.3 85.4 12.3 85.4 12.2C85.3 12.1 85.2 12 85.2 11.8C85.2 11.6 85.1 11.4 85.1 11.2V8.70001H84.5C84.5 8.70001 84.4 8.70001 84.4 8.60001C84.4 8.60001 84.4 8.50001 84.4 8.40001V8.30001V8.20001C84.4 8.20001 84.4 8.20001 84.5 8.20001H85V7.20001C85 7.20001 85 7.20001 85.1 7.20001H85.2C85.3 7.20001 85.3 7.20001 85.3 7.20001H85.4V8.20001H86.5C86.5 8.20001 86.5 8.20001 86.6 8.20001C86.6 8.20001 86.6 8.20001 86.6 8.30001V8.40001C86.6 8.50001 86.6 8.50001 86.6 8.60001L86.5 8.70001H85.4V11.1C85.4 11.4 85.4 11.6 85.5 11.8C85.6 12 85.7 12 86 12C86.1 12 86.1 12 86.2 12C86.3 12 86.3 12 86.4 12H86.5H86.6C86.8 11.9 86.8 12 86.8 12.1C86.8 12 86.8 12 86.8 12.1Z" fill="white"/>
<path d="M90.8 12.7C90.7 12.7 90.7 12.7 90.6 12.7H90.5C90.4 12.7 90.4 12.6 90.3 12.5V12.4V12.3V9.9C90.3 9.7 90.3 9.5 90.3 9.4C90.3 9.3 90.2 9.2 90.2 9.1C90 9 90 9 89.9 9C89.8 9 89.7 8.9 89.6 8.9C89.5 8.9 89.3 9 89.2 9.1C89 9.2 88.9 9.4 88.7 9.6V12.4L88.6 12.5C88.6 12.6 88.5 12.6 88.4 12.7H88.3C88.3 12.7 88.2 12.7 88.1 12.7C88 12.7 88 12.7 87.9 12.7H87.8C87.7 12.7 87.6 12.6 87.6 12.5V12.4V12.3V6.3V6.2C87.6 6.1 87.7 6.1 87.8 6H87.9C87.9 6 88 6 88.1 6C88.2 6 88.2 6 88.3 6H88.4C88.5 6 88.5 6.1 88.6 6.2V6.3V6.4V8.2C88.7 8.2 88.7 8.1 88.8 8.1C89.1 8 89.3 7.9 89.6 7.9C89.9 7.9 90.2 8 90.4 8.1C90.6 8.2 90.8 8.4 90.9 8.5C91 8.7 91.1 8.9 91.2 9.1C91.3 9.3 91.3 9.6 91.3 9.9V12.4L91.2 12.5C91.2 12.6 91.1 12.6 91 12.7H90.9C91 12.7 90.9 12.7 90.8 12.7Z" fill="white"/>
<path d="M91.1 12.3C91.1 12.4 91.1 12.4 91.1 12.3C91 12.4 91 12.4 91 12.4H90.9C90.8 12.4 90.8 12.4 90.8 12.4H90.7V9.90001C90.7 9.70001 90.7 9.50001 90.6 9.30001C90.6 9.10001 90.5 9.00001 90.4 8.90001C90.3 8.80001 90.2 8.70001 90.1 8.60001C90 8.50001 89.8 8.50001 89.7 8.50001C89.5 8.50001 89.3 8.60001 89.1 8.70001C88.9 8.80001 88.7 9.10001 88.5 9.30001V12.2C88.5 12.2 88.5 12.2 88.4 12.2H88.3C88.2 12.2 88.2 12.2 88.2 12.2H88.1V6.20001C88.1 6.20001 88.1 6.20001 88.2 6.20001H88.3C88.4 6.20001 88.4 6.20001 88.4 6.20001H88.5V8.70001C88.7 8.50001 88.9 8.30001 89.2 8.20001C89.4 8.10001 89.6 8.00001 89.9 8.00001C90.2 8.00001 90.4 8.00001 90.6 8.10001C90.8 8.20001 90.9 8.30001 91 8.50001C90.9 8.80001 91 9.00001 91 9.20001C91 9.40001 91.1 9.60001 91.1 9.90001V12.3Z" fill="white"/>
<path d="M94.2 12.8C93.9 12.8 93.5 12.7 93.3 12.6C93 12.5 92.8 12.3 92.6 12.1C92.4 11.9 92.3 11.6 92.2 11.3C92 11 92 10.7 92 10.3C92 9.89999 92 9.59999 92.1 9.29999C92.2 8.99999 92.3 8.69999 92.5 8.49999C92.7 8.29999 93 8.09999 93.2 7.99999C93.5 7.89999 93.8 7.79999 94.1 7.79999C94.4 7.79999 94.7 7.89999 95 7.99999C95.3 8.09999 95.5 8.29999 95.6 8.49999C95.8 8.69999 95.9 8.99999 96 9.19999C96.1 9.49999 96.1 9.69999 96.1 9.99999V10.1C96.1 10.4 96 10.5 95.9 10.6C95.8 10.7 95.7 10.7 95.6 10.7H93.2C93.2 10.8 93.2 10.9 93.2 11C93.2 11.2 93.3 11.3 93.4 11.4C93.5 11.5 93.6 11.6 93.7 11.6C93.8 11.7 94 11.7 94.2 11.7C94.4 11.7 94.5 11.7 94.6 11.7C94.7 11.7 94.8 11.6 94.9 11.6C95 11.6 95.1 11.5 95.1 11.5C95.2 11.4 95.3 11.4 95.4 11.4H95.5L95.6 11.5C95.7 11.5 95.7 11.6 95.8 11.7V11.8C95.8 11.8 95.8 11.9 95.8 12V12.1L95.7 12.3C95.7 12.3 95.7 12.4 95.6 12.4C95.6 12.4 95.5 12.5 95.4 12.5C95.3 12.5 95.2 12.6 95.1 12.6C95 12.6 94.8 12.7 94.6 12.7C94.6 12.8 94.4 12.8 94.2 12.8ZM95 9.69999C95 9.49999 94.9 9.29999 94.8 9.19999C94.7 8.99999 94.4 8.89999 94.1 8.89999C93.9 8.89999 93.8 8.89999 93.7 8.99999C93.6 9.09999 93.5 9.09999 93.4 9.19999C93.3 9.29999 93.3 9.39999 93.2 9.49999V9.59999H95V9.69999Z" fill="white"/>
<path d="M95.8 10.1C95.8 10.2 95.8 10.3 95.7 10.3C95.6 10.3 95.6 10.4 95.5 10.4H92.8C92.8 10.6 92.8 10.9 92.9 11.1C92.9 11.3 93 11.5 93.1 11.6C93.2 11.7 93.4 11.9 93.5 11.9C93.8 12 94 12 94.3 12C94.5 12 94.7 12 94.8 12C94.9 12 95.1 11.9 95.2 11.9C95.3 11.9 95.4 11.8 95.5 11.8C95.6 11.8 95.6 11.8 95.6 11.8C95.6 11.8 95.6 11.8 95.6 11.9V12C95.6 12 95.6 12 95.6 12.1C95.6 12.1 95.6 12.1 95.6 12.2C95.6 12.2 95.5 12.2 95.5 12.3C95.4 12.3 95.3 12.4 95.2 12.4C95.1 12.4 94.9 12.5 94.8 12.5C94.6 12.5 94.5 12.5 94.3 12.5C94 12.5 93.7 12.5 93.5 12.4C93.3 12.3 93.1 12.2 92.9 12C92.7 11.8 92.6 11.6 92.5 11.3C92.4 11 92.4 10.7 92.4 10.4C92.4 10.1 92.4 9.79999 92.5 9.49999C92.6 9.19999 92.7 8.99999 92.9 8.79999C93.1 8.59999 93.3 8.49999 93.5 8.39999C93.7 8.29999 94 8.29999 94.3 8.29999C94.6 8.29999 94.9 8.39999 95.1 8.49999C95.3 8.59999 95.5 8.69999 95.6 8.89999C95.7 9.09999 95.8 9.29999 95.9 9.49999C96 9.69999 96 9.99999 96 10.2V10.1H95.8ZM95.3 9.99999C95.3 9.59999 95.2 9.19999 95 8.99999C94.8 8.79999 94.5 8.59999 94.1 8.59999C93.9 8.59999 93.7 8.59999 93.6 8.69999C93.4 8.79999 93.3 8.89999 93.2 8.99999C93.1 9.09999 93 9.29999 93 9.39999C92.9 9.59999 92.9 9.69999 92.9 9.89999H95.3V9.99999Z" fill="white"/>
<path d="M50.8 20.9C50.7 20.4 50.5 20 50.3 19.6C50.1 19.2 49.7 18.9 49.3 18.7C48.9 18.5 48.4 18.4 47.9 18.4C47.6 18.4 47.4 18.4 47.2 18.5C47 18.6 46.8 18.6 46.5 18.8C46.3 18.9 46.1 19.1 45.9 19.2C45.8 19.3 45.7 19.3 45.6 19.4V18.4H44.3V29H45.7V25.7C45.8 25.8 45.8 25.8 45.9 25.9C46.1 26 46.3 26.2 46.5 26.3C46.7 26.4 46.9 26.5 47.1 26.5C47.3 26.5 47.5 26.6 47.7 26.6C48.2 26.6 48.7 26.5 49.1 26.3C49.5 26.1 49.9 25.8 50.1 25.5C50.4 25.1 50.6 24.7 50.7 24.2C50.8 23.7 50.9 23.1 50.9 22.5C50.9 21.9 50.9 21.4 50.8 20.9ZM49.4 23.6C49.3 23.9 49.2 24.2 49.1 24.5C49 24.8 48.8 25 48.5 25.1C48.3 25.2 48 25.3 47.7 25.3C47.4 25.3 47 25.2 46.7 25C46.4 24.8 46 24.4 45.7 24V21.1C45.9 20.9 46.1 20.6 46.3 20.5C46.5 20.3 46.7 20.2 46.9 20.1C47.1 20 47.2 19.9 47.4 19.9C47.6 19.9 47.7 19.8 47.9 19.8C48.2 19.8 48.5 19.9 48.7 20C48.9 20.1 49.1 20.4 49.2 20.6C49.3 20.9 49.4 21.2 49.5 21.5C49.6 21.9 49.6 22.2 49.6 22.6C49.5 22.9 49.5 23.3 49.4 23.6Z" fill="white"/>
<path d="M59 20.9C58.9 20.4 58.7 20 58.5 19.6C58.3 19.2 57.9 18.9 57.5 18.7C57.1 18.5 56.6 18.4 56.1 18.4C55.8 18.4 55.6 18.4 55.4 18.5C55.2 18.6 55 18.6 54.7 18.8C54.5 18.9 54.3 19.1 54.1 19.2C54 19.3 53.9 19.3 53.8 19.4V18.4H52.5V29H54V25.7C54.1 25.8 54.1 25.8 54.2 25.9C54.4 26 54.6 26.2 54.8 26.3C55 26.4 55.2 26.5 55.4 26.5C55.6 26.5 55.8 26.6 56 26.6C56.5 26.6 57 26.5 57.4 26.3C57.8 26.1 58.2 25.8 58.4 25.5C58.7 25.1 58.9 24.7 59 24.2C59.1 23.7 59.2 23.1 59.2 22.5C59.2 21.9 59.1 21.4 59 20.9ZM57.7 23.6C57.6 23.9 57.5 24.2 57.4 24.5C57.3 24.8 57.1 25 56.8 25.1C56.6 25.2 56.3 25.3 56 25.3C55.7 25.3 55.3 25.2 55 25C54.7 24.8 54.3 24.4 54 24V21.1C54.2 20.9 54.4 20.6 54.6 20.5C54.8 20.3 55 20.2 55.2 20.1C55.4 20 55.5 19.9 55.7 19.9C55.9 19.9 56 19.8 56.2 19.8C56.5 19.8 56.8 19.9 57 20C57.2 20.1 57.4 20.4 57.5 20.6C57.6 20.9 57.7 21.2 57.8 21.5C57.9 21.9 57.9 22.2 57.9 22.6C57.8 22.9 57.7 23.3 57.7 23.6Z" fill="white"/>
<path d="M82.6 19.6C82.3 19.2 81.9 19 81.5 18.8C81.1 18.6 80.5 18.5 80 18.5C79.4 18.5 78.9 18.6 78.4 18.8C77.9 19 77.6 19.3 77.2 19.7C76.9 20.1 76.7 20.5 76.5 21C76.4 21.5 76.3 22 76.3 22.6C76.3 23.2 76.4 23.7 76.5 24.2C76.6 24.7 76.9 25.1 77.2 25.5C77.5 25.8 77.9 26.1 78.3 26.3C78.7 26.5 79.3 26.6 79.8 26.6C80.4 26.6 80.9 26.5 81.4 26.3C81.9 26.1 82.2 25.8 82.6 25.4C82.9 25 83.1 24.6 83.3 24.1C83.5 23.6 83.5 23.1 83.5 22.5C83.5 21.9 83.4 21.4 83.3 20.9C83.1 20.4 82.9 19.9 82.6 19.6ZM82 22.5C82 22.9 82 23.3 81.9 23.6C81.8 23.9 81.7 24.2 81.5 24.5C81.3 24.7 81.1 24.9 80.8 25.1C80.5 25.2 80.2 25.3 79.8 25.3C79.4 25.3 79 25.2 78.8 25.1C78.5 25 78.3 24.8 78.2 24.5C78 24.2 77.9 24 77.8 23.6C77.7 23.3 77.7 22.9 77.7 22.5C77.7 22.1 77.7 21.7 77.8 21.4C77.9 21.1 78 20.8 78.2 20.5C78.4 20.3 78.6 20.1 78.9 19.9C79.2 19.8 79.5 19.7 79.9 19.7C80.3 19.7 80.7 19.8 80.9 19.9C81.2 20 81.4 20.2 81.5 20.5C81.7 20.8 81.8 21.1 81.9 21.4C82 21.8 82 22.2 82 22.5Z" fill="white"/>
<path d="M39.6 16.2H38L34.6 26.5H36L36.8 23.5H40.9L41.7 26.5H43L39.6 16.2ZM37.1 22.4L38.7 17.9L40.3 22.4H37.1Z" fill="white"/>
<path d="M70 22.4C69.9 22.1 69.7 21.8 69.4 21.6C69.2 21.4 68.9 21.2 68.6 21C68.3 20.8 68 20.7 67.7 20.5C67.4 20.4 67.1 20.2 66.8 20.1C66.5 20 66.3 19.8 66.1 19.7C65.9 19.5 65.7 19.4 65.6 19.2C65.5 19 65.4 18.8 65.4 18.5C65.4 18.3 65.4 18.1 65.5 18C65.6 17.8 65.7 17.7 65.8 17.6C65.9 17.5 66.1 17.4 66.3 17.3C66.5 17.2 66.7 17.2 67 17.2C67.3 17.2 67.5 17.2 67.8 17.3C68 17.4 68.2 17.5 68.4 17.5C68.6 17.6 68.7 17.7 68.8 17.7L69.4 16.5C69.3 16.4 69.2 16.4 69 16.3C68.8 16.2 68.7 16.1 68.4 16.1C68.2 16 68 16 67.8 15.9C67.6 15.9 67.3 15.8 67.1 15.8C66.7 15.8 66.2 15.9 65.9 16C65.5 16.1 65.2 16.3 64.9 16.5C64.6 16.7 64.4 17 64.2 17.4C64 17.7 64 18.1 64 18.5C64 18.9 64.1 19.3 64.2 19.6C64.3 19.9 64.5 20.2 64.8 20.4C65 20.6 65.3 20.8 65.6 21C65.9 21.2 66.2 21.3 66.5 21.5C66.8 21.6 67.1 21.8 67.4 21.9C67.7 22 67.9 22.2 68.1 22.3C68.3 22.5 68.5 22.6 68.6 22.8C68.7 23 68.8 23.2 68.8 23.5C68.8 23.8 68.8 24 68.7 24.2C68.6 24.4 68.5 24.6 68.3 24.7C68.1 24.8 67.9 25 67.7 25C67.5 25.1 67.2 25.1 66.9 25.1C66.5 25.1 66.2 25.1 65.9 25C65.6 24.9 65.4 24.8 65.2 24.7C65 24.6 64.8 24.5 64.7 24.4L64.4 26C64.6 26.1 64.8 26.2 65 26.3C65.2 26.4 65.5 26.5 65.8 26.5C66.1 26.6 66.4 26.6 66.8 26.6C67.3 26.6 67.8 26.5 68.2 26.4C68.6 26.3 69 26.1 69.3 25.8C69.6 25.5 69.9 25.2 70 24.8C70.2 24.4 70.3 24 70.3 23.5C70.2 23.1 70.1 22.7 70 22.4Z" fill="white"/>
<path d="M74.7 25.2C74.6 25.2 74.6 25.3 74.5 25.3C74.4 25.3 74.3 25.3 74.2 25.3C73.8 25.3 73.6 25.1 73.6 25C73.5 24.8 73.4 24.4 73.4 23.9V19.9H75V18.7H73.3V17.2L72 17.7V18.6H71.3V19.8H72V24C72 24.4 72 24.8 72.1 25.1C72.2 25.4 72.3 25.7 72.5 25.9C72.7 26.1 72.9 26.3 73.2 26.4C73.5 26.5 73.8 26.6 74.2 26.6C74.3 26.6 74.4 26.6 74.5 26.6C74.6 26.6 74.7 26.6 74.8 26.5C74.9 26.5 75 26.4 75.1 26.4L74.9 25.1C74.9 25.1 74.8 25.2 74.7 25.2Z" fill="white"/>
<path d="M88.2 18.5C88 18.5 87.8 18.5 87.6 18.6C87.4 18.6 87.3 18.7 87.1 18.8C86.9 18.9 86.8 19.1 86.6 19.3C86.5 19.4 86.5 19.4 86.4 19.5V18.6H85.1V26.7H86.5V21.5C86.7 21.2 86.8 21 87 20.8C87.2 20.6 87.3 20.4 87.4 20.3C87.5 20.2 87.7 20.1 87.8 20.1C87.9 20.1 88 20 88.1 20H88.2H88.4V18.7L88.2 18.5Z" fill="white"/>
<path d="M95.1 24.8H95C94.9 24.9 94.7 24.9 94.6 25C94.4 25.1 94.2 25.1 94 25.2C93.8 25.3 93.5 25.3 93.2 25.3C92.8 25.3 92.4 25.2 92.1 25.1C91.8 25 91.6 24.8 91.4 24.6C91.2 24.4 91.1 24.1 91 23.8C90.9 23.5 90.9 23.2 90.9 22.9H95.5C95.6 22.9 95.8 22.9 95.9 22.8C96.1 22.7 96.1 22.5 96.1 22.2V22C96.1 21.5 96 21.1 95.9 20.7C95.8 20.3 95.6 19.9 95.3 19.6C95 19.3 94.7 19 94.3 18.8C93.9 18.6 93.4 18.5 92.9 18.5C92.4 18.5 91.9 18.6 91.5 18.8C91.1 19 90.7 19.3 90.4 19.6C90.1 20 89.9 20.4 89.7 20.9C89.5 21.4 89.5 22 89.5 22.6C89.5 23.2 89.6 23.8 89.7 24.3C89.9 24.8 90.1 25.2 90.4 25.6C90.7 25.9 91.1 26.2 91.5 26.4C91.9 26.6 92.5 26.7 93 26.7C93.3 26.7 93.7 26.7 94 26.6C94.3 26.5 94.6 26.5 94.8 26.4C94.9 26.4 95.1 26.3 95.2 26.3V24.8H95.1ZM91 21.1C91.1 20.8 91.2 20.6 91.4 20.4C91.6 20.2 91.8 20 92 19.9C92.2 19.8 92.5 19.7 92.8 19.7C93.4 19.7 93.9 19.9 94.2 20.3C94.5 20.6 94.6 21.1 94.7 21.7H90.9C90.8 21.5 90.9 21.3 91 21.1Z" fill="white"/>
</g>
<defs>
<clipPath id="clip0_11_2">
<rect width="116" height="36" fill="white"/>
</clipPath>
</defs>
</svg>
