<svg xmlns="http://www.w3.org/2000/svg" viewBox="0 0 30 30"><defs><style>.cls-1{fill:#fff;}.cls-2{fill:none;}</style></defs><title>Asset 21</title><g id="Layer_2" data-name="Layer 2"><g id="Capa_1" data-name="Capa 1"><path class="cls-1" d="M24.42,16.26l1.92-8.54A.87.87,0,0,0,26.17,7a.9.9,0,0,0-.7-.34H8.61L8.18,4.76a.89.89,0,0,0-.87-.69H4.53a.89.89,0,0,0,0,1.78H6.6L9.79,19.69a.9.9,0,0,0,.87.69H23.5a.89.89,0,0,0,0-1.78H11.37L11,17H23.55A.9.9,0,0,0,24.42,16.26Zm-.06-7.85-1.53,6.77H10.58L9,8.41Z"/><path class="cls-1" d="M13.29,20.73a2.6,2.6,0,1,0,2.6,2.6A2.61,2.61,0,0,0,13.29,20.73Zm.82,2.6a.82.82,0,1,1-.82-.82A.82.82,0,0,1,14.11,23.33Z"/><path class="cls-1" d="M21,20.73a2.6,2.6,0,1,0,2.6,2.6A2.61,2.61,0,0,0,21,20.73Zm.82,2.6a.82.82,0,1,1-.82-.82A.82.82,0,0,1,21.8,23.33Z"/><g id="Layer_1-2" data-name="Layer 1-2"><rect class="cls-2" width="30" height="30"/></g></g></g></svg>