<svg xmlns="http://www.w3.org/2000/svg" viewBox="0 0 63.97 64.19"><defs><style>.cls-1{fill:#fff;}</style></defs><title>1STORE VISIT</title><g id="Layer_2" data-name="Layer 2"><g id="Layer_1-2" data-name="Layer 1"><path class="cls-1" d="M63.32,62.89H59.64v-7a.65.65,0,0,0-1.3,0v7H55.21V57a.59.59,0,0,0-.05-.23,4.36,4.36,0,0,0,1.68,1.78.65.65,0,0,0,.89-.25.64.64,0,0,0-.24-.88A3.07,3.07,0,0,1,56,54.8a3,3,0,0,1,3-3,3,3,0,0,1,3.06,3,3,3,0,0,1-1.63,2.71.65.65,0,0,0,.31,1.23.66.66,0,0,0,.3-.07,4.34,4.34,0,0,0,1-6.94,4.23,4.23,0,0,0-1.08-.76,3.53,3.53,0,0,0-.19-6A.65.65,0,0,0,60.1,46,2.23,2.23,0,0,1,59,50.19a2.25,2.25,0,0,1-1.59-.63A2.24,2.24,0,0,1,58,46a.66.66,0,0,0-.61-1.16A3.55,3.55,0,0,0,55.45,48a3.51,3.51,0,0,0,1.07,2.49,3.06,3.06,0,0,0,.53.42,4.33,4.33,0,0,0-2.38,3.91,4.23,4.23,0,0,0,.46,1.86.64.64,0,0,0-.57-.35H53V39.46a5.19,5.19,0,0,0,.68-.56,5.12,5.12,0,0,0,1.52-3.65V28.52h1.14a.65.65,0,0,0,.65-.65V22.33a.65.65,0,0,0-.65-.65H53v-4.9a.65.65,0,0,0-.65-.65H48.59a.65.65,0,0,0-.65.65.66.66,0,0,0,.65.66h3.12v4.24H12.26V17.44H45.83a.67.67,0,0,0,.66-.66.66.66,0,0,0-.66-.65H42.24V13.36h5.59a.66.66,0,0,0,.61-.43L53,.88a.64.64,0,0,0-.07-.6A.66.66,0,0,0,52.36,0H19.61a.65.65,0,0,0,0,1.3H51.42l-4,10.75H16.59l-4-10.75h3.59a.65.65,0,0,0,0-1.3H11.61a.66.66,0,0,0-.54.28.64.64,0,0,0-.07.6l4.53,12a.66.66,0,0,0,.61.43h5.59v2.77H11.61a.65.65,0,0,0-.65.65v4.9H7.62a.65.65,0,0,0-.65.65v5.54a.65.65,0,0,0,.65.65H8.76v6.73A5.19,5.19,0,0,0,11,39.46v5.09a.65.65,0,0,0,.65.65.76.76,0,0,0,.16,0,.76.76,0,0,0,.16,0H16.5a.65.65,0,1,0,0-1.3H12.26V40.13a5.27,5.27,0,0,0,1.67.28,5.15,5.15,0,0,0,4.51-2.66,5.16,5.16,0,0,0,9,0,5.16,5.16,0,0,0,9,0,5.16,5.16,0,0,0,9,0A5.15,5.15,0,0,0,50,40.41a5.27,5.27,0,0,0,1.67-.28V43.9H47.47a.65.65,0,1,0,0,1.3h4.24v1.3H47.47a.65.65,0,1,0,0,1.3h4.24v1.3H47.47a.65.65,0,1,0,0,1.3h4.24v1.3H47.47a.65.65,0,1,0,0,1.3h4.24v3.33H41.66V50.56a.65.65,0,0,0-1.3,0V62.89H32.64V43h7.72v4.68a.65.65,0,1,0,1.3,0V42.39a.65.65,0,0,0-.65-.65H23a.65.65,0,0,0-.65.65V56.33h-10V53H16.5a.65.65,0,1,0,0-1.3H12.26V50.4H16.5a.65.65,0,1,0,0-1.3H12.26V47.8H16.5a.65.65,0,1,0,0-1.3H11.93a.76.76,0,0,0-.16,0,.76.76,0,0,0-.16,0,.65.65,0,0,0-.65.65v9.18H9.41a.62.62,0,0,0-.52.29,4.51,4.51,0,0,0,.42-1.9,4.35,4.35,0,0,0-1.31-3,4.23,4.23,0,0,0-1.08-.76,3.53,3.53,0,0,0-.19-6A.65.65,0,1,0,6.09,46a2.24,2.24,0,1,1-2.68,3.54A2.28,2.28,0,0,1,2.74,48a2.22,2.22,0,0,1,1.2-2,.66.66,0,0,0,.28-.88.65.65,0,0,0-.88-.28A3.52,3.52,0,0,0,3,50.91a4.33,4.33,0,0,0-.2,7.62.66.66,0,0,0,.89-.25.64.64,0,0,0-.24-.88A3,3,0,0,1,2,54.8a3,3,0,0,1,3-3,2.93,2.93,0,0,1,2.15.86,3,3,0,0,1-.71,4.84A.65.65,0,0,0,7,58.61,4.29,4.29,0,0,0,8.8,56.78a.71.71,0,0,0,0,.2v5.91H5.63v-7a.65.65,0,0,0-1.3,0v7H.65a.65.65,0,1,0,0,1.3H63.32a.65.65,0,0,0,0-1.3M23,13.36H40.94v2.77H23ZM8.27,23H55.7v4.24H8.27Zm9.52,12.27a3.86,3.86,0,0,1-3.86,3.86,4,4,0,0,1-2-.54,3.91,3.91,0,0,1-1.87-3.32V28.52h7.72ZM23,39.11a3.87,3.87,0,0,1-3.87-3.86V28.52h7.73v6.73A3.86,3.86,0,0,1,23,39.11m9,0a3.87,3.87,0,0,1-3.87-3.86V28.52h7.73v6.73A3.87,3.87,0,0,1,32,39.11m12.89-3.86a3.87,3.87,0,0,1-7.73,0V28.52h7.73Zm1.3,0V28.52h7.73v6.73A3.84,3.84,0,0,1,52.77,38a4.11,4.11,0,0,1-.74.58,3.86,3.86,0,0,1-5.85-3.31M10.07,62.89V57.63H22.31v5.26H10.07ZM23.61,57V43h7.72V62.89H23.61Zm28.75,5.91H41.66V57.63H53.9v5.26Z"/><path class="cls-1" d="M29.53,50.19a.66.66,0,0,0-.65.66v2.67a.65.65,0,1,0,1.3,0V50.85a.66.66,0,0,0-.65-.66"/><path class="cls-1" d="M33.79,50.85v2.67a.65.65,0,0,0,1.3,0V50.85a.65.65,0,1,0-1.3,0"/><path class="cls-1" d="M22.16,8.18l1,1.09H22.08l-.64-.76a2.42,2.42,0,0,1-.54.06,2.12,2.12,0,0,1-2.17-2.16A2.13,2.13,0,0,1,20.9,4.25a2.11,2.11,0,0,1,2.15,2.16,2.11,2.11,0,0,1-.89,1.77M20.9,7.82a1.27,1.27,0,0,0,1.28-1.41,1.29,1.29,0,1,0-2.58,0,1.28,1.28,0,0,0,1.3,1.41"/><path class="cls-1" d="M25.51,8.53H23.69V4.31h1.74c.88,0,1.37.46,1.37,1.09a1,1,0,0,1-.72,1,1,1,0,0,1,.81,1c0,.67-.51,1.14-1.38,1.14M25.31,5h-.78v1h.78c.39,0,.62-.18.62-.52S25.7,5,25.31,5m.06,1.71h-.84V7.84h.85c.42,0,.66-.2.66-.55s-.26-.58-.67-.58"/><polygon class="cls-1" points="29 4.32 31.61 4.32 31.61 5 29.85 5 29.85 6.08 31.2 6.08 31.2 6.75 29.85 6.75 29.85 8.53 29 8.53 29 4.32"/><path class="cls-1" d="M34.16,8.57A2.11,2.11,0,0,1,32,6.41a2.16,2.16,0,0,1,4.32,0,2.11,2.11,0,0,1-2.16,2.16m0-.75a1.28,1.28,0,0,0,1.29-1.41,1.29,1.29,0,1,0-2.58,0,1.27,1.27,0,0,0,1.29,1.41"/><path class="cls-1" d="M38.9,8.57a2.11,2.11,0,0,1-2.16-2.16,2.16,2.16,0,1,1,4.31,0A2.11,2.11,0,0,1,38.9,8.57m0-.75a1.27,1.27,0,0,0,1.28-1.41,1.29,1.29,0,1,0-2.57,0A1.27,1.27,0,0,0,38.9,7.82"/><path class="cls-1" d="M45.37,6.43a2,2,0,0,1-2.22,2.1H41.68V4.31h1.47a2,2,0,0,1,2.22,2.12M43.12,7.81a1.26,1.26,0,0,0,1.39-1.38A1.27,1.27,0,0,0,43.12,5h-.6V7.81Z"/></g></g></svg>