<svg xmlns="http://www.w3.org/2000/svg" viewBox="0 0 58.35 58.35"><defs><style>.cls-1{fill:#fff;}</style></defs><title>1INSTA</title><g id="Layer_2" data-name="Layer 2"><g id="Layer_1-2" data-name="Layer 1"><path class="cls-1" d="M29.17,58.35A29.18,29.18,0,1,1,58.35,29.17,29.21,29.21,0,0,1,29.17,58.35m0-56.93A27.75,27.75,0,1,0,56.92,29.17,27.78,27.78,0,0,0,29.17,1.42"/><path class="cls-1" d="M37,16.37H21.32a5,5,0,0,0-4.95,4.95V37A5,5,0,0,0,21.32,42H37A5,5,0,0,0,42,37V21.32A5,5,0,0,0,37,16.37m1.42,2.95H39v4.34l-4.33,0V19.34ZM25.52,26.54a4.51,4.51,0,1,1-.85,2.63,4.51,4.51,0,0,1,.85-2.63M39.49,37A2.46,2.46,0,0,1,37,39.48H21.32A2.46,2.46,0,0,1,18.87,37V26.54h3.82a7,7,0,1,0,13,0h3.83Z"/></g></g></svg>