<svg xmlns="http://www.w3.org/2000/svg" viewBox="0 0 64.39 65.19"><defs><style>.cls-1{fill:#fff;}</style></defs><title>1DELIVERY</title><g id="Layer_2" data-name="Layer 2"><g id="Layer_1-2" data-name="Layer 1"><path class="cls-1" d="M45.57,39.93a14.39,14.39,0,0,1,11.15,5.28.66.66,0,0,0,.51.25.66.66,0,0,0,.42-.15.66.66,0,0,0,.09-.93,15.66,15.66,0,0,0-12.17-5.77.66.66,0,1,0,0,1.32"/><path class="cls-1" d="M60,54.35a.66.66,0,0,0,1.32,0,15.66,15.66,0,0,0-1.59-6.9.66.66,0,0,0-1.19.58A14.26,14.26,0,0,1,60,54.35"/><path class="cls-1" d="M60.16,59h3.57a.65.65,0,0,0,.66-.66V54.35A18.84,18.84,0,0,0,45.57,35.53H43.88V32.32h1.36a.66.66,0,0,0,0-1.32H43.88V29.68h1.36a.66.66,0,0,0,0-1.32H43.88V27.05h1.36a.67.67,0,0,0,0-1.33H43.88V24.41h1.36a.66.66,0,0,0,0-1.32H43.88V20.18a4.06,4.06,0,0,0-4.05-4.05H37.07a12.8,12.8,0,0,0,.52-3.58A12.55,12.55,0,1,0,13,16.13H11.24a4.06,4.06,0,0,0-4,4.05v5.5a.66.66,0,0,0,1.32,0v-5.5a2.73,2.73,0,0,1,2.73-2.73h2.24a12.55,12.55,0,0,0,23.12,0h3.23a2.73,2.73,0,0,1,2.73,2.73v2.91H36.33a.66.66,0,0,0,0,1.32h6.23v1.31H37.63a.67.67,0,0,0,0,1.33h4.93v1.31h-8a.66.66,0,1,0,0,1.32h8V31h-9a.66.66,0,0,0,0,1.32h9V57.63H40A.66.66,0,0,0,40,59h6.48a6.88,6.88,0,0,0,2.82,4.92h-22A6.88,6.88,0,0,0,30.1,59h7a.66.66,0,0,0,0-1.32h-7a6.9,6.9,0,0,0-13.73,0H8.51V49.41H12.3a.66.66,0,0,0,0-1.32H8.51V46.77H12.3a.66.66,0,0,0,0-1.32H8.51V44.14H12.3a.66.66,0,0,0,0-1.32H8.51V41.5H12.3a.66.66,0,0,0,0-1.32H8.51v-11a.66.66,0,1,0-1.32,0v11H3.4a.66.66,0,1,0,0,1.32H7.19v1.32H4.7a.66.66,0,0,0,0,1.32H7.19v1.31H1.6a.66.66,0,0,0,0,1.32H7.19v1.32H.66a.66.66,0,1,0,0,1.32H7.19v8.88a.65.65,0,0,0,.66.66h8.52a6.88,6.88,0,0,0,2.82,4.92H12.55a.66.66,0,0,0,0,1.32H63.73a.66.66,0,0,0,0-1.32H57.34A6.88,6.88,0,0,0,60.16,59M25,23.79A11.24,11.24,0,1,1,36.27,12.55,11.25,11.25,0,0,1,25,23.79m-7.38,34.5a5.58,5.58,0,0,1,11.15,0h0a5.58,5.58,0,1,1-11.15,0M45.57,36.85a17.52,17.52,0,0,1,17.5,17.5v3.28H60.16a6.9,6.9,0,0,0-13.73,0H43.88V36.85Zm2.14,21.44a5.58,5.58,0,1,1,5.58,5.58,5.59,5.59,0,0,1-5.58-5.58"/><path class="cls-1" d="M53.29,54.77a3.52,3.52,0,1,0,0,7,.66.66,0,0,0,0-1.32,2.18,2.18,0,1,1,1.51-.59.66.66,0,0,0,.9,1,3.52,3.52,0,0,0-2.41-6.09"/><path class="cls-1" d="M23.23,54.77a3.52,3.52,0,0,0,0,7,.66.66,0,1,0,0-1.32,2.18,2.18,0,1,1,1.51-.59.66.66,0,1,0,.9,1,3.52,3.52,0,0,0-2.41-6.09"/><path class="cls-1" d="M10.23,63.87H.66a.66.66,0,1,0,0,1.32h9.57a.66.66,0,0,0,0-1.32"/><path class="cls-1" d="M25,2.15a10.3,10.3,0,0,0-7.48,3.17.66.66,0,0,0,1,.92A9.08,9.08,0,1,1,25,21.64,9.1,9.1,0,0,1,16,12.55a8.93,8.93,0,0,1,1-4.09.67.67,0,0,0-.3-.89.66.66,0,0,0-.88.3,10.25,10.25,0,0,0-1.12,4.68A10.41,10.41,0,1,0,25,2.15"/><polygon class="cls-1" points="31.71 10.53 25.2 11.85 21.39 8.92 20.59 9.97 24.88 13.26 31.97 11.83 31.71 10.53"/><path class="cls-1" d="M16.09,38.12l1,1.11H16l-.65-.78a2.44,2.44,0,0,1-.55.06,2.13,2.13,0,1,1,1.29-.39m-1.29-.37a1.29,1.29,0,0,0,1.3-1.43,1.31,1.31,0,1,0-2.61,0,1.29,1.29,0,0,0,1.31,1.43"/><path class="cls-1" d="M19.48,38.47H17.63V34.2H19.4c.89,0,1.39.46,1.39,1.1a1,1,0,0,1-.73,1,1,1,0,0,1,.82,1c0,.68-.52,1.15-1.4,1.15m-.21-3.58h-.78V36h.78c.41,0,.64-.18.64-.53s-.23-.54-.64-.54m.06,1.73h-.84v1.15h.86c.42,0,.66-.2.66-.56s-.26-.59-.68-.59"/><polygon class="cls-1" points="23.02 34.2 25.66 34.2 25.66 34.89 23.88 34.89 23.88 35.99 25.25 35.99 25.25 36.67 23.88 36.67 23.88 38.47 23.02 38.47 23.02 34.2"/><path class="cls-1" d="M28.25,38.51a2.19,2.19,0,1,1,2.19-2.19,2.15,2.15,0,0,1-2.19,2.19m0-.76a1.3,1.3,0,0,0,1.31-1.43,1.32,1.32,0,1,0-1.31,1.43"/><path class="cls-1" d="M33.06,38.51a2.19,2.19,0,1,1,2.18-2.19,2.15,2.15,0,0,1-2.18,2.19m0-.76a1.29,1.29,0,0,0,1.3-1.43,1.31,1.31,0,1,0-2.61,0,1.29,1.29,0,0,0,1.31,1.43"/><path class="cls-1" d="M39.62,36.34a2.05,2.05,0,0,1-2.25,2.13H35.88V34.2h1.49a2.06,2.06,0,0,1,2.25,2.14m-2.28,1.4a1.28,1.28,0,0,0,1.41-1.4,1.29,1.29,0,0,0-1.41-1.42h-.61v2.82Z"/></g></g></svg>