<svg xmlns="http://www.w3.org/2000/svg" viewBox="0 0 58.35 58.35"><defs><style>.cls-1{fill:#fff;}</style></defs><title>1FACEBOOK</title><g id="Layer_2" data-name="Layer 2"><g id="Layer_1-2" data-name="Layer 1"><path class="cls-1" d="M29.17,58.35A29.18,29.18,0,1,1,58.35,29.17,29.21,29.21,0,0,1,29.17,58.35m0-56.93A27.75,27.75,0,1,0,56.92,29.17,27.78,27.78,0,0,0,29.17,1.42"/><path class="cls-1" d="M23,24.84h2.65V22.26a6.93,6.93,0,0,1,.85-4,4.72,4.72,0,0,1,4.12-1.93,16.44,16.44,0,0,1,4.74.48l-.66,3.92a9.13,9.13,0,0,0-2.13-.31c-1,0-2,.36-2,1.39v3h4.22l-.3,3.83H30.61V42h-5V28.67H23Z"/></g></g></svg>