<svg xmlns="http://www.w3.org/2000/svg" viewBox="0 0 58.35 58.35"><defs><style>.cls-1,.cls-2{fill:#fff;}.cls-2{fill-rule:evenodd;}</style></defs><title>1Whats app</title><g id="Layer_2" data-name="Layer 2"><g id="Layer_1-2" data-name="Layer 1"><path class="cls-1" d="M29.17,58.35A29.18,29.18,0,1,1,58.35,29.17,29.21,29.21,0,0,1,29.17,58.35m0-56.93A27.75,27.75,0,1,0,56.92,29.17,27.78,27.78,0,0,0,29.17,1.42"/><path class="cls-2" d="M39.49,18.8A14.5,14.5,0,0,0,16.67,36.29L14.62,43.8l7.68-2a14.43,14.43,0,0,0,6.93,1.77h0A14.5,14.5,0,0,0,39.49,18.8M29.23,41.1h0a12,12,0,0,1-6.13-1.68l-.44-.26-4.56,1.2,1.21-4.45L19,35.45A11.87,11.87,0,0,1,17.19,29a12,12,0,1,1,12,12.06m6.61-9c-.36-.18-2.14-1.06-2.47-1.18s-.58-.18-.82.18-.93,1.18-1.14,1.42-.43.27-.79.09a9.73,9.73,0,0,1-2.91-1.8,10.69,10.69,0,0,1-2-2.51c-.21-.36,0-.56.16-.74s.36-.42.55-.63a2.45,2.45,0,0,0,.36-.6.68.68,0,0,0,0-.64c-.09-.18-.82-2-1.12-2.69s-.59-.61-.81-.62h-.7a1.32,1.32,0,0,0-1,.45,4,4,0,0,0-1.27,3,7.07,7.07,0,0,0,1.48,3.75A16.14,16.14,0,0,0,29.53,35c.87.37,1.54.59,2.07.76a4.81,4.81,0,0,0,2.28.14,3.72,3.72,0,0,0,2.45-1.72,3,3,0,0,0,.21-1.72c-.09-.15-.34-.24-.7-.42"/></g></g></svg>