<svg xmlns="http://www.w3.org/2000/svg" viewBox="0 0 50.23 68.23"><defs><style>.cls-1{fill:#fff;}</style></defs><title>1ENQUIRIES</title><g id="Layer_2" data-name="Layer 2"><g id="Layer_1-2" data-name="Layer 1"><path class="cls-1" d="M7.55,68.23h0a1,1,0,0,1-1-1.07l.34-8.43a1,1,0,1,1,2.06.09l-.34,8.42a1,1,0,0,1-1,1"/><path class="cls-1" d="M27.26,68.23a1,1,0,0,1-1-1l-.35-8.42a1,1,0,0,1,1-1.08,1,1,0,0,1,1.07,1l.35,8.43a1,1,0,0,1-1,1.07h0"/><path class="cls-1" d="M30.6,68.23H4.2a3.59,3.59,0,0,1-3.57-4l1-9.17A5.41,5.41,0,0,1,7,50.43h7.83a1,1,0,0,1,1,1.15l-.07.65a2.15,2.15,0,0,0,.36,1.34,1.68,1.68,0,0,0,2.51,0A2.22,2.22,0,0,0,19,52.23l-.08-.65a1,1,0,0,1,1-1.15h7.85a5.39,5.39,0,0,1,5.36,4.62l1,9.2a3.59,3.59,0,0,1-3.58,4M7,52.5a3.33,3.33,0,0,0-3.32,2.86l-1,9.12a1.55,1.55,0,0,0,.38,1.18,1.52,1.52,0,0,0,1.14.51H30.6a1.5,1.5,0,0,0,1.14-.51,1.48,1.48,0,0,0,.38-1.18l-1-9.17a3.34,3.34,0,0,0-3.32-2.81H21.08a4.23,4.23,0,0,1-.85,2.41,3.71,3.71,0,0,1-5.66,0,4.16,4.16,0,0,1-.86-2.41Z"/><path class="cls-1" d="M17.4,56.22a3.71,3.71,0,0,1-3.69-4.12l.38-3.33a1,1,0,0,1,1.31-.88,4.94,4.94,0,0,0,1.37.2H18a4.92,4.92,0,0,0,1.36-.2,1,1,0,0,1,.86.14,1,1,0,0,1,.45.74l.38,3.33a3.71,3.71,0,0,1-3.68,4.12M16,50.11l-.25,2.22a1.62,1.62,0,0,0,.47,1.35A1.64,1.64,0,0,0,19,52.33l-.25-2.22a6.28,6.28,0,0,1-.75,0H16.77a6.28,6.28,0,0,1-.75,0"/><path class="cls-1" d="M18,50.15H16.77a7.05,7.05,0,0,1-7.06-7V40.81a6,6,0,0,1,6-6h3.32a6,6,0,0,1,6,6V43.1a7.05,7.05,0,0,1-7,7m-2.29-13.3a4,4,0,0,0-4,4V43.1a5,5,0,0,0,3.62,4.79,4.94,4.94,0,0,0,1.37.2H18a4.92,4.92,0,0,0,1.36-.2A5,5,0,0,0,23,43.1V40.81a4,4,0,0,0-4-4Z"/><path class="cls-1" d="M35.19,38.68a2.3,2.3,0,0,1-.81-.14,2.26,2.26,0,0,1-1.48-2.11l0-4.63a.21.21,0,0,0-.22-.21H5.25A5.26,5.26,0,0,1,0,26.34V5.25A5.26,5.26,0,0,1,5.25,0H45a5.26,5.26,0,0,1,5.26,5.25V26.34A5.26,5.26,0,0,1,45,31.59H42.6a.2.2,0,0,0-.16.07l-5.55,6.25a2.29,2.29,0,0,1-1.7.77M5.25,2.06A3.19,3.19,0,0,0,2.06,5.25V26.34a3.19,3.19,0,0,0,3.19,3.18H32.63a2.29,2.29,0,0,1,2.28,2.26L35,36.4a.21.21,0,0,0,.14.2.19.19,0,0,0,.24-.06l5.56-6.25a2.26,2.26,0,0,1,1.7-.77H45a3.19,3.19,0,0,0,3.19-3.18V5.25A3.19,3.19,0,0,0,45,2.06Z"/></g></g></svg>