<svg xmlns="http://www.w3.org/2000/svg" xmlns:xlink="http://www.w3.org/1999/xlink" viewBox="0 0 58.35 58.35"><defs><style>.cls-1,.cls-3{fill:none;}.cls-2{fill:#fff;}.cls-3{stroke:#fff;stroke-miterlimit:10;stroke-width:0.28px;}.cls-4{opacity:0.8;}.cls-5{clip-path:url(#clip-path);}</style><clipPath id="clip-path"><rect class="cls-1" x="16.77" y="35.77" width="24.81" height="7.49"/></clipPath></defs><title>1location</title><g id="Layer_2" data-name="Layer 2"><g id="Layer_1-2" data-name="Layer 1"><path class="cls-2" d="M29.17,41.25a.48.48,0,0,1-.38-.18L21,31.78a10.75,10.75,0,0,1-2.29-4.32A10.6,10.6,0,0,1,28.94,14.23h.26a10.57,10.57,0,0,1,8.3,17.38l-7.94,9.46a.5.5,0,0,1-.39.18m-.23-26a9.62,9.62,0,0,0-9.13,12.55,9.42,9.42,0,0,0,1.89,3.29L29.17,40l7.57-9A9.59,9.59,0,0,0,37,19a9.8,9.8,0,0,0-7.95-3.79Z"/><path class="cls-3" d="M29.17,41.25a.48.48,0,0,1-.38-.18L21,31.78a10.75,10.75,0,0,1-2.29-4.32A10.6,10.6,0,0,1,28.94,14.23h.26a10.57,10.57,0,0,1,8.3,17.38l-7.94,9.46A.5.5,0,0,1,29.17,41.25Zm-.23-26a9.62,9.62,0,0,0-9.13,12.55,9.42,9.42,0,0,0,1.89,3.29L29.17,40l7.57-9A9.59,9.59,0,0,0,37,19a9.8,9.8,0,0,0-7.95-3.79Z"/><path class="cls-2" d="M30.42,31.07a6.38,6.38,0,1,1,5-5,6.39,6.39,0,0,1-5,5m-.19-11.54a5.38,5.38,0,1,0,4.22,4.22,5.39,5.39,0,0,0-4.22-4.22"/><path class="cls-3" d="M30.42,31.07a6.38,6.38,0,1,1,5-5A6.39,6.39,0,0,1,30.42,31.07Zm-.19-11.54a5.38,5.38,0,1,0,4.22,4.22A5.39,5.39,0,0,0,30.23,19.53Z"/><path class="cls-2" d="M42.17,44.11h-26a.49.49,0,0,1-.42-.24.5.5,0,0,1,0-.49l4.33-8.2a35.88,35.88,0,0,1,4.19-.27.5.5,0,0,1,0,1H20.8L17,43.11H41.34l-3.8-7.2H34.18a.5.5,0,0,1,0-1h3.66a.48.48,0,0,1,.44.27l4.33,8.2a.5.5,0,0,1,0,.49.5.5,0,0,1-.43.24"/><path class="cls-3" d="M42.17,44.11h-26a.49.49,0,0,1-.42-.24.5.5,0,0,1,0-.49l4.33-8.2a35.88,35.88,0,0,1,4.19-.27.5.5,0,0,1,0,1H20.8L17,43.11H41.34l-3.8-7.2H34.18a.5.5,0,0,1,0-1h3.66a.48.48,0,0,1,.44.27l4.33,8.2a.5.5,0,0,1,0,.49A.5.5,0,0,1,42.17,44.11Z"/><path class="cls-2" d="M33,58.1A29.18,29.18,0,1,1,58.1,33,29.21,29.21,0,0,1,33,58.1M32.79,1.65a27.76,27.76,0,1,0,23.9,23.91A27.79,27.79,0,0,0,32.79,1.65"/><g class="cls-4"><g class="cls-5"><polygon class="cls-2" points="20.8 35.91 17 43.11 41.34 43.11 37.54 35.91 34.18 35.91 29.17 41.25 24.25 35.91 20.8 35.91"/><polygon class="cls-3" points="20.8 35.91 17 43.11 41.34 43.11 37.54 35.91 34.18 35.91 29.17 41.25 24.25 35.91 20.8 35.91"/></g></g></g></g></svg>