<?xml version="1.0" encoding="UTF-8"?>
<svg id="Layer_2" data-name="Layer 2" xmlns="http://www.w3.org/2000/svg" xmlns:xlink="http://www.w3.org/1999/xlink" viewBox="0 0 101.53 101.53">
  <defs>
    <style>
      .cls-1 {
        stroke: #a20c33;
        stroke-linejoin: round;
        stroke-width: 3.98px;
      }

      .cls-1, .cls-2 {
        fill: none;
      }

      .cls-3 {
        clip-path: url(#clippath);
      }
    </style>
    <clipPath id="clippath">
      <rect class="cls-2" width="101.53" height="101.53"/>
    </clipPath>
  </defs>
  <g id="Layer_1-2" data-name="Layer 1">
    <g class="cls-3">
      <g>
        <path class="cls-1" d="m64.01,88.28c4.77,0,8.83-4.52,8.83-8.83v-19.86c0-7.28-14.41-11.03-22.07-11.03s-22.07,3.75-22.07,11.03v19.86c0,4.3,4.06,8.83,8.83,8.83"/>
        <path class="cls-1" d="m90.49,92.7c4.3,0,8.83-2.32,8.83-6.62v-19.87c0-7.28-12.96-11.03-19.86-11.03-.68,0-1.43.04-2.21.11"/>
        <path class="cls-1" d="m50.76,41.93c5.14,0,8.83-3.24,8.83-7.94v-3.97c0-4.7-3.69-7.94-8.83-7.94s-8.83,3.24-8.83,7.94v3.97c0,4.7,3.69,7.94,8.83,7.94Z"/>
        <path class="cls-1" d="m90.49,101.53v-30.9"/>
        <path class="cls-1" d="m64,101.53v-37.52"/>
        <path class="cls-1" d="m37.52,64v37.52"/>
        <path class="cls-1" d="m81.66,48.56c5.14,0,8.83-3.24,8.83-7.94v-3.97c0-4.7-3.69-7.94-8.83-7.94s-8.83,3.24-8.83,7.94v3.97c0,4.7,3.69,7.94,8.83,7.94Z"/>
        <path class="cls-1" d="m11.04,92.7c-4.3,0-8.83-2.32-8.83-6.62v-19.87c0-7.28,12.96-11.03,19.86-11.03.68,0,1.43.04,2.21.11"/>
        <path class="cls-1" d="m11.04,101.53v-30.9"/>
        <path class="cls-1" d="m19.86,48.56c-5.14,0-8.83-3.24-8.83-7.94v-3.97c0-4.7,3.69-7.94,8.83-7.94s8.83,3.24,8.83,7.94v3.97c0,4.7-3.69,7.94-8.83,7.94Z"/>
        <path class="cls-1" d="m30.9,22.07c-5.14,0-8.83-3.24-8.83-7.95v-3.97c0-4.7,3.69-7.95,8.83-7.95s8.83,3.24,8.83,7.95v3.97c0,4.7-3.69,7.95-8.83,7.95Z"/>
        <path class="cls-1" d="m70.63,22.07c-5.14,0-8.83-3.24-8.83-7.95v-3.97c0-4.7,3.69-7.95,8.83-7.95s8.83,3.24,8.83,7.95v3.97c0,4.7-3.69,7.95-8.83,7.95Z"/>
      </g>
    </g>
  </g>
</svg>