<?xml version="1.0" encoding="UTF-8"?>
<svg id="Layer_2" data-name="Layer 2" xmlns="http://www.w3.org/2000/svg" xmlns:xlink="http://www.w3.org/1999/xlink" viewBox="0 0 103.74 115">
  <defs>
    <style>
      .cls-1 {
        stroke: #545deb;
        stroke-linejoin: round;
        stroke-width: 4.33px;
      }

      .cls-1, .cls-2 {
        fill: none;
      }

      .cls-3 {
        clip-path: url(#clippath);
      }
    </style>
    <clipPath id="clippath">
      <rect class="cls-2" width="103.74" height="115"/>
    </clipPath>
  </defs>
  <g id="Layer_1-2" data-name="Layer 1">
    <g class="cls-3">
      <g>
        <path class="cls-1" d="m56.19,50.31s3.2-5.15,4.32-7.19c1.71-3.09,6.2-9.58,12.97-9.58h15.13c5.99,0,12.97,5.61,12.97,14.38v19.17c0,4.7-4.34,9.58-8.64,9.58h-2.16"/>
        <path class="cls-1" d="m67,115v-62.29l-6.48,9.58"/>
        <path class="cls-1" d="m90.77,50.31v64.69"/>
        <path class="cls-1" d="m79.97,76.67v38.33"/>
        <path class="cls-1" d="m34.58,115v-62.29l13.31,15.55c2.14,2.39,5.73,2.39,7.89,0l2.42-2.64s-7.84-13.49-10.65-17.73c-2.83-4.26-8.15-14.38-17.29-14.38h-15.13c-5.99,0-12.97,5.46-12.97,14.38v19.17c0,4.77,4.34,9.58,8.64,9.58"/>
        <path class="cls-1" d="m10.81,50.31v64.69"/>
        <path class="cls-1" d="m23.77,76.67v38.33"/>
        <path class="cls-1" d="m23.77,26.36c5.04,0,8.65-3.91,8.65-9.58v-4.79c0-5.68-3.61-9.58-8.65-9.58s-8.64,3.91-8.64,9.58v4.79c0,5.68,3.61,9.58,8.64,9.58Z"/>
        <path class="cls-1" d="m79.97,26.36c5.04,0,8.64-3.91,8.64-9.58v-4.79c0-5.68-3.61-9.58-8.64-9.58s-8.65,3.91-8.65,9.58v4.79c0,5.68,3.61,9.58,8.65,9.58Z"/>
      </g>
    </g>
  </g>
</svg>