<svg width="486" height="559" viewBox="0 0 486 559" fill="none" xmlns="http://www.w3.org/2000/svg">
<path d="M229.8 437.3C226.9 432.4 224.6 428.4 222.3 424.4C182.2 355.3 142.1 286.2 102.1 217C87.3 191.5 81.1 163.7 83.6 134.5C89.2 69.9 135.6 16.7 198.2 3.70001C245.7 -6.29999 289 3.90001 326 35.8C352.7 58.8 369 88.3 374.7 123.5C380.3 158.3 373.2 190.5 355.6 220.8C315.9 289.2 276.3 357.6 236.6 426.1C234.6 429.4 232.5 432.8 229.8 437.3ZM229.6 213.6C266.6 214.4 298.4 184.8 298.2 145.4C298 109.7 270.2 78.3 230.2 77.9C191.8 77.5 161.1 108.5 161.6 146.9C162 183.7 192.2 214.1 229.6 213.6Z" fill="#147D41"/>
<path d="M243.2 558.7C191.4 558 140.6 551.4 91.8 533.6C70.9 526 51 516.1 33.6 502.1C19.9 491.1 8.30001 478.3 2.90001 461.1C-3.69999 439.7 1.10001 420.3 14.5 402.9C29.8 382.9 50.6 370.1 73 359.7C99.6 347.4 127.8 340.2 156.5 335.1C158.6 334.7 162.2 337 163.6 339C167.2 344 169.8 349.6 173.1 354.8C177.8 362.4 173.4 365.5 167.3 366.6C158.2 368.3 149 369.7 139.9 371.8C114.3 377.6 89.4 385.5 67.1 399.7C58.8 405 50.7 411.3 44 418.5C26.6 437.2 31.3 455.8 47.6 471.5C64.2 487.4 84.7 496.7 105.9 504.2C131.5 513.3 158 519.1 185.1 521.5C204.6 523.3 224.3 525.1 243.8 525C295.3 524.8 346 518.5 394.1 498.5C410.5 491.7 426 483.4 438.7 470.6C457.2 451.9 457.3 433.6 438.7 414.9C424.7 400.8 407.3 392 389.1 384.8C366.3 375.8 342.6 369.9 318.3 366.4C310.6 365.3 308.7 361.3 312.5 354.6C315.1 350.1 317.7 345.7 320.2 341.2C322.8 336.4 325.8 334 332.1 335.2C366.8 341.8 400.4 351.5 431.2 369.1C446.7 377.9 460.6 388.7 471.4 403C491.8 430.2 489.7 463.1 466.5 488.2C445.6 510.7 419.3 524.1 391 534.4C361.5 545.1 331 551.6 299.7 554.5C281 556.5 262.1 557.4 243.2 558.7Z" fill="#147D41"/>
</svg>
