<svg xmlns="http://www.w3.org/2000/svg" viewBox="0 0 197.84 76.11"><defs><style>.cls-1,.cls-2{fill:#ffffff;}.cls-1{fill-rule:evenodd;}</style></defs><title>Asset 1</title><g id="Layer_2" data-name="Layer 2"><g id="Layer_1-2" data-name="Layer 1"><path class="cls-1" d="M51.59,0c0,2.25,0,4.51,0,6.77,0,1.58,0,3.17,0,4.76A19.64,19.64,0,0,0,37.39,22.18c0-.32,0-.46,0-.62V.38c0-.13,0-.26,0-.38H51.59"/><path class="cls-1" d="M197.84,68.55a7.34,7.34,0,0,1-.51.6c-.39.41-.62.35-.79-.21a2.31,2.31,0,0,1,1.06-2.68c.08.43.16.85.24,1.25v1"/><polygon class="cls-1" points="81.25 45.23 81.25 15.78 99.9 15.78 99.9 20.72 86.78 20.72 86.78 27.67 98.08 27.67 98.08 32.72 86.74 32.72 86.74 45.23 81.25 45.23"/><path class="cls-1" d="M35.13,38.77V61H20.84v-.65c0-3.38,0-6.78,0-10.16,0-.52.12-.71.68-.83A19.13,19.13,0,0,0,34.91,39.17a2.17,2.17,0,0,1,.22-.4"/><path class="cls-1" d="M100.83,64.5a22.57,22.57,0,0,0,1.57-2.61,3,3,0,0,1,3.52-2,.86.86,0,0,0,.54-.1,2.1,2.1,0,0,1,3,1,20.39,20.39,0,0,1,.71,2.87,6.19,6.19,0,0,1,.1.87A7.4,7.4,0,0,0,112,61.71a5.86,5.86,0,0,1,1.54-3,2.77,2.77,0,0,1,4.11.27l.29.4c0-.44,0-.72.09-1,.18-1.61.36-3.23.58-4.84.05-.44.2-.9.79-.83s.68.55.6,1c-.31,2.06-.77,4.09-.93,6.16A56.3,56.3,0,0,0,119,66.1a3.59,3.59,0,0,0,.56,1.29.39.39,0,0,0,.33.12c.55-.05.71.34.76.77a1,1,0,0,1-.64,1.08.75.75,0,0,1-1.06-.36c-.32-.89-.57-1.81-.85-2.7,0-.19-.1-.39-.18-.68-.33.77-.59,1.43-.91,2.06a3.71,3.71,0,0,1-2,2A1.8,1.8,0,0,1,112.7,69a6.33,6.33,0,0,1-1-3.55,2,2,0,0,0-.1-.61c-.48,1-1.64,1.4-2,2.58a3.53,3.53,0,0,1-6.53.49,24.32,24.32,0,0,1-1.11-2.89c-.43.42-1,.92-1.53,1.47a2.24,2.24,0,0,0-.27.67,3.81,3.81,0,0,1-3,2.72,3.38,3.38,0,0,1-3.31-1.38A5.72,5.72,0,0,1,93,67.14a7.32,7.32,0,0,1-.19-5A2.87,2.87,0,0,1,96.35,60a1.09,1.09,0,0,0,.49-.11A2.15,2.15,0,0,1,99.91,61a15.71,15.71,0,0,1,.64,2.75,2.81,2.81,0,0,1,0,.65l.27.12m17-3.36h-.18a4.15,4.15,0,0,1-.69-.7,1.87,1.87,0,0,0-3.12-.3,4.1,4.1,0,0,0-.59.84,7.93,7.93,0,0,0-.31,5.88c.21.61.47,1.31,1.19,1.42s1.29-.43,1.69-1a13,13,0,0,0,2-6.13m-22.14.39a1.49,1.49,0,0,0-1.66.61,4.45,4.45,0,0,0,1.45,6.08,2.31,2.31,0,0,0,3.37-1.38,2.94,2.94,0,0,1-3.29-1.55,3.36,3.36,0,0,1,.13-3.76m9.62-.14c-1.14.08-1.56.35-1.91,1.12a4.49,4.49,0,0,0,1.12,5.28,2.38,2.38,0,0,0,4-1,3.11,3.11,0,0,1-3.34-1.63,3.46,3.46,0,0,1,.18-3.82m-5.56,2.8a17.1,17.1,0,0,0-.52-2.11c-.49-1.23-1.18-1.37-2.14-.49l-.1.07a2.36,2.36,0,0,0-.68,2.52,2.22,2.22,0,0,0,2.31,1.21c1-.13,1-.2,1.13-1.2m9.47-.27a4,4,0,0,0-.75-2.5,1,1,0,0,0-1.62-.06,2.37,2.37,0,0,1-.27.28,2.3,2.3,0,0,0-.73,2.32,2.06,2.06,0,0,0,2,1.39c1.27,0,1.41-.11,1.39-1.43"/><path class="cls-1" d="M79.27,63.76a7.68,7.68,0,0,1-2.07,2.7,2.32,2.32,0,0,0-.48.81A3.79,3.79,0,0,1,73.59,70a3.37,3.37,0,0,1-3.37-1.64,6.82,6.82,0,0,1-.6-6.69A2.74,2.74,0,0,1,73,60a1.15,1.15,0,0,0,.54-.08,2.07,2.07,0,0,1,3,1,14.61,14.61,0,0,1,.72,2.86c0,.22,0,.45.08.85.81-1,1.63-1.7,1.49-3A6.35,6.35,0,0,1,78.86,60c0-.39.18-.79.75-.66s.9.4.81,1-.15,1.11-.23,1.67l.16,0c.19-.52.38-1,.58-1.57.55-1.43,1.19-1.22,2.24-.3a.85.85,0,0,1,0,1.24c-.3.37-.68.28-1,0a3.46,3.46,0,0,0-.52-.24c-.37,1.52-.81,3-1.06,4.45a24.46,24.46,0,0,0-.16,3.22c0,.24.06.52,0,.7s-.35.38-.55.55c-.14-.18-.39-.35-.41-.56-.08-.88-.1-1.77-.11-2.65,0-1,0-2.07,0-3.11m-6.88-2.21a1.84,1.84,0,0,0-1.88,1,4.55,4.55,0,0,0,1.25,5.56A2.35,2.35,0,0,0,75.5,67a3,3,0,0,1-3.28-1.57,3.35,3.35,0,0,1,.17-3.83m3.89,2.63.16-.06a17.22,17.22,0,0,0-.81-2.39c-.43-.84-1.15-.85-1.76-.18l-.18.19a2.24,2.24,0,0,0-.75,2.42A2.07,2.07,0,0,0,75,65.48c1.14,0,1.28-.13,1.25-1.3"/><path class="cls-1" d="M89.88,64.13c1.25.47,1.25,1.58,1.38,2.56a20.44,20.44,0,0,1-.47,8.12c-.15.57-.25,1.32-1.11,1.29s-1-.77-1.05-1.35c-.19-1.64-.29-3.32-.41-5,0-.49,0-1,0-1.5A2.38,2.38,0,0,0,88,67.6c-.06-.17-.19-.36-.17-.53.12-1,.26-2.1.4-3.15,0-.09.11-.17.15-.28a4.86,4.86,0,0,0,.48-1.2,41.38,41.38,0,0,1,1.57-7.6c.11-.29.22-.57.32-.86a.92.92,0,0,1,1.25-.6,1.35,1.35,0,0,1,.6.86,9.07,9.07,0,0,1-.32,4.29,18.07,18.07,0,0,1-2.41,5.6m-.15,1.41-.19.06a1.61,1.61,0,0,0-.15.47c-.06,2.14-.13,4.27-.12,6.42a8.36,8.36,0,0,0,.4,1.79l.24,0a15.81,15.81,0,0,0,.3-7.73,3.75,3.75,0,0,0-.48-1m.22-4c1.26-1.41,2.24-5.79,1.5-6.58A27.88,27.88,0,0,0,90,61.59"/><path class="cls-1" d="M171.05,66.47a9.37,9.37,0,0,1-1.16,1.26,1.48,1.48,0,0,1-2.53-.71,5.09,5.09,0,0,1-.12-2,5.43,5.43,0,0,1,2.17-3.73,10.83,10.83,0,0,1,1.92-.88,1.39,1.39,0,0,1,.07-.44,1.84,1.84,0,0,1,.49-.72c.5-.33.82-.11.77.48-.09,1.36-.27,2.73-.29,4.09,0,2.36.11,4.73.13,7.08a7.52,7.52,0,0,1-.17,1.89c-.59,2.42-2.61,3.55-5.15,2.88a5,5,0,0,1-2.87-1.77,1.85,1.85,0,0,1-.37-2.22c.15-.25.56-.36.85-.53a2.64,2.64,0,0,1,.26.76,2.81,2.81,0,0,0,2.41,2.67c2.26.5,3.75-.63,3.8-3,.05-1.71,0-3.41,0-5.13h-.23m.3-4.66c-2-.09-3.44,3.35-2.78,4.6.18.36.53.48.8.22a4,4,0,0,0,1.07-1.33c.39-1.11.6-2.26.91-3.49"/><path class="cls-1" d="M59.68,62.78c0-1,0-2,0-2.93,0-.27-.31-.53-.34-.82-.1-1.15-.15-2.29-.22-3.57-1.08.07-2.3.08-3.48.21-1,.11-1.88.33-2.82.5-.51.11-1-.09-1-.46,0-.57.45-.66.85-.7,1.72-.09,3.43-.21,5.14-.25,2.86-.1,5.72-.16,8.58-.22.82,0,1.65.06,2.47.06.4,0,.82-.12,1.22-.09a2.74,2.74,0,0,1,.85.4c-.24.33-.42.8-.73,1a3.43,3.43,0,0,1-1.28,0c-.64,0-1.29.07-1.93,0a3.12,3.12,0,0,1-1-.29c-.18-.06-.33-.24-.48-.24-1.72,0-3.44,0-5.24.06.64.56.34,1.18.33,1.79,0,1.67,0,3.34,0,5,0,.34.09.53.48.51l4.71-.39.13,0c.32.11.89.19.91.34,0,.45-.22.77-.78.8a7.91,7.91,0,0,1-2.48,0,8.75,8.75,0,0,0-2.64.11c-.11,0-.29.27-.27.42,0,1.52.1,3,.17,4.54,0,.41.08.81.07,1.22,0,.15-.2.4-.32.41A.61.61,0,0,1,60,70a5.2,5.2,0,0,1-.28-1.39c0-1.59,0-3.2,0-4.89L57.61,64l-.18.07c-.54.1-1-.15-1-.56,0-.56.44-.63.86-.66s.66,0,1,0,.78,0,1.18-.06l.22,0"/><path class="cls-1" d="M191.67,59.84c.19-1.72.38-3.39.58-5.07a1.85,1.85,0,0,1,.13-.5c.12-.31.12-.79.65-.73.38,0,.76.76.69,1.18-.27,1.44-.61,2.88-.79,4.35a31.65,31.65,0,0,0-.2,7.78,5.19,5.19,0,0,0,.24.83l.24,0c.22-.38.44-.75.64-1.12.12-.19.18-.41.3-.58s.41-.25.51,0a1.08,1.08,0,0,1,0,.75,13.35,13.35,0,0,1-1.14,2.1.79.79,0,0,1-1.43-.13,12.29,12.29,0,0,1-.78-2,12.71,12.71,0,0,1-.92,1.18,1.82,1.82,0,0,1-1.69.78,1.67,1.67,0,0,1-1.25-1.52,8,8,0,0,1,1.89-6.88,1.73,1.73,0,0,1,2.29-.5m0,1.65c-.2,0-.4,0-.5-.14-.59-.5-.8-.5-1.25.14a7.11,7.11,0,0,0-1.18,3.32,7,7,0,0,0,0,1.94c.11.7.6.79,1.1.28a1.76,1.76,0,0,0,.32-.4,12.56,12.56,0,0,0,1.49-5.14"/><path class="cls-1" d="M135.3,62.76a4,4,0,0,0-.44.81c-.44,1.58-.83,3.21-1.26,4.8a3.78,3.78,0,0,1-.35.66c-.19-.24-.52-.46-.54-.7a40.44,40.44,0,0,1-.25-5.26c.14-2.75.48-5.47.74-8.22l0-.12c.14-.37.08-.95.73-.89.42,0,.8.8.68,1.28a45.58,45.58,0,0,0-1,8.05.53.53,0,0,0,.12.41,10.09,10.09,0,0,1,.52-1,6.59,6.59,0,0,1,1-1.32,1.08,1.08,0,0,1,1-.16,1.17,1.17,0,0,1,.47.82c.11,1.69.17,3.38.26,5.06a5.37,5.37,0,0,0,.15.8l.19.08,1.16-1.77a.92.92,0,0,1,.26,1.23,9.87,9.87,0,0,1-1,1.75c-.53.75-1.44.65-1.64-.22a32.11,32.11,0,0,1-.53-3.92c-.06-.67,0-1.36,0-2l-.26-.08"/><path class="cls-1" d="M143.63,66.87c-.38.47-.7.95-1.1,1.37a1.61,1.61,0,0,1-1.73.61,1.69,1.69,0,0,1-1.14-1.46,8.16,8.16,0,0,1,2.65-6.87,2.19,2.19,0,0,1,1.95-.42,1.75,1.75,0,0,1,.84,2.81.93.93,0,0,0-.21.5c0,1.24.08,2.48.16,3.71,0,.22.26.44.4.67a3.2,3.2,0,0,0,.52-.52c.18-.31.31-.66.47-1,.06-.11.21-.25.26-.23s.27.18.28.29a1.84,1.84,0,0,1,0,.88,8.88,8.88,0,0,1-.88,1.74,1,1,0,0,1-1.84-.21,14.35,14.35,0,0,1-.59-1.88m-2.83-.43c.1.22.2.75.51.92.53.27.83-.3,1.11-.66.08-.12.16-.26.24-.4a10.74,10.74,0,0,0,1.07-3.77,2,2,0,0,1,.26-.61c.06-.13.19-.32.14-.38s-.33-.32-.43-.29a2.43,2.43,0,0,0-1,.53,8.06,8.06,0,0,0-1.85,4.66"/><path class="cls-1" d="M176.66,60.58c2.44,1.81,3.31,4.15,2.5,6.63a4.56,4.56,0,0,1-.81,1.48,2.1,2.1,0,0,1-3.48-.17,5.76,5.76,0,0,1,.25-6.57l.42-.49c-.33-.23-.89-.19-.78-.81a1.06,1.06,0,0,1,.93-1c1-.15,2.05-.27,3.07-.38.35,0,.64.11.58.51s-.08.8-.65.77h-2m0,1.58c-1.7,1-1.75,4.47-.65,5.68a1,1,0,0,0,1.64-.16,4.55,4.55,0,0,0-1-5.52"/><path class="cls-1" d="M183.36,60.57c2.45,1.74,3.32,4.19,2.46,6.73a4.25,4.25,0,0,1-.59,1.14,2.15,2.15,0,0,1-3.77-.1,5.75,5.75,0,0,1,.16-6.14c.18-.26.37-.48.56-.72l-.06-.1c-.28-.19-.77-.16-.68-.72a1.05,1.05,0,0,1,.85-1c1-.17,2.07-.31,3.13-.42.36-.05.74.1.63.59s-.2.79-.8.71a14.67,14.67,0,0,0-1.89,0m-.06,1.51a4.47,4.47,0,0,0-.74,5.61c.58.77,1.36.66,1.84-.23a4.6,4.6,0,0,0-1.1-5.38"/><path class="cls-1" d="M153.35,62.37a3.75,3.75,0,0,0-3.36,0l-.13.28c0,1.51,0,3,.14,4.53a1.19,1.19,0,0,0,.59.88c.47.21.73-.27.92-.62.31-.56.58-1.16.86-1.74.1-.19.19-.39.31-.64a1.06,1.06,0,0,1,.37,1.39,10.09,10.09,0,0,1-1.47,2.48,1.43,1.43,0,0,1-2.58-.48,12.87,12.87,0,0,1-.54-2.92,23.59,23.59,0,0,1,0-2.38l-.17,0c-.24,0-.49.07-.74.1.07-.31.06-.83.24-.91,1.09-.48.94-1.5,1.2-2.37a10.74,10.74,0,0,1,.93-2.11c.07-.17.42-.2.64-.29a2.82,2.82,0,0,1,0,.7c-.19.94-.41,1.89-.63,2.84.93-.13,1.76-.34,2.58-.38.37,0,1,.16,1.1.42s-.16.78-.3,1.28"/><path class="cls-1" d="M128.26,57.61c-.12.58-.25,1.16-.36,1.74s-.23,1.17-.34,1.79l2.45-.38a.73.73,0,0,1,.44,0c.29.11.77.27.79.42a4.09,4.09,0,0,1-.34,1.23c-1.16-.75-2.18-.34-3.18,0a.53.53,0,0,0-.29.4c0,1.41,0,2.83,0,4.22a1.51,1.51,0,0,0,.69,1.14c.52.2.77-.42,1-.82s.52-1,.77-1.57c.08-.19.15-.38.24-.61a.9.9,0,0,1,.48,1.16,4.87,4.87,0,0,1-1.84,3,1.37,1.37,0,0,1-2.25-.72A16.65,16.65,0,0,1,126,65.3a19.42,19.42,0,0,1,0-2.16l-.23.06-.67.1a5.29,5.29,0,0,1,.09-.8.48.48,0,0,1,.27-.27c.85-.27.84-1,1-1.7a11.59,11.59,0,0,1,.69-2.21c.15-.35.55-.59.84-.88a1.33,1.33,0,0,0,.3.17"/><path class="cls-1" d="M157.94,69.69a11.11,11.11,0,0,1-1.18-.46.73.73,0,0,1-.29-1c.21-.4.55-.3.91-.2a2.2,2.2,0,0,0,3-1.64,1.28,1.28,0,0,0-.83-1.62,14.32,14.32,0,0,0-1.63-.38,1.54,1.54,0,0,1-1.35-2.19,4.22,4.22,0,0,1,2.2-2.47c.37-.16.8-.25,1,.18s-.1.69-.42.92a8.89,8.89,0,0,0-1.18,1c-.68.76-.5,1.23.49,1.43.32.06.63.11.95.19a2.43,2.43,0,0,1,1.93,3.34,4.26,4.26,0,0,1-3.63,2.92"/><path class="cls-1" d="M154.37,57.33a10.9,10.9,0,0,0,.89-1.14,3.71,3.71,0,0,0,.41-1.27c.07-.46.65-1,1.1-.82a.64.64,0,0,1,.33.48,4.61,4.61,0,0,1-2.4,2.86c-.07,0-.15-.06-.33-.11"/><path class="cls-1" d="M17.77,12.77A17.77,17.77,0,1,0,35.53,30.53,17.75,17.75,0,0,0,17.77,12.77m0,22.73a5,5,0,1,1,5-5,5,5,0,0,1-5,5"/><path class="cls-1" d="M54.75,12.77A17.77,17.77,0,1,0,72.52,30.53,17.75,17.75,0,0,0,54.75,12.77m0,22.73a5,5,0,1,1,5-5,5,5,0,0,1-5,5"/><path class="cls-2" d="M116.61,15.22c-8.94,0-13.32,6.69-13.32,15.28s4.38,15.28,13.32,15.28S130,39.1,130,30.5s-4.39-15.28-13.36-15.28m0,25.52c-5.53,0-7.61-5-7.61-10.24s2.08-10.22,7.61-10.22,7.63,5,7.63,10.22-2.07,10.24-7.63,10.24"/><path class="cls-2" d="M146.29,15.22c-9,0-13.34,6.69-13.34,15.28s4.38,15.28,13.34,15.28,13.34-6.68,13.34-15.28-4.39-15.28-13.34-15.28m0,25.52c-5.55,0-7.62-5-7.62-10.24s2.07-10.22,7.62-10.22,7.62,5,7.62,10.22-2.08,10.24-7.62,10.24"/><path class="cls-2" d="M163.74,15.73H175c6.76,0,11.82,4.81,11.82,14.61,0,8.56-3.87,14.94-11.82,14.94H163.74V15.73m5.6,24.54h5.24c3.32,0,6.49-1.82,6.49-9.31s-1.82-10.17-7.51-10.17h-4.22Z"/></g></g></svg>