<svg viewBox="0 0 197.84 76.11" xmlns="http://www.w3.org/2000/svg"><path d="m-19.22-24.64v31.01h31.35v-31.01zm19.42 24.34-3.31-4.81-2.83 4.81h-5.4l5.54-8.73-5.73-8.32h5.59l3.22 4.69 2.75-4.7h5.4l-5.47 8.59 5.83 8.47z" fill="none"/><path d="m182.01-24.64v31.01h31.34v-31.01zm19.42 24.34-3.31-4.81-2.83 4.81h-5.4l5.54-8.73-5.73-8.32h5.59l3.22 4.69 2.76-4.69h5.4l-5.47 8.59 5.81 8.46h-5.59z" fill="none"/><path d="m-19.22 68.21v31.01h31.35v-31.01zm19.42 24.34-3.31-4.81-2.83 4.81h-5.4l5.54-8.73-5.73-8.32h5.59l3.22 4.69 2.75-4.7h5.4l-5.47 8.59 5.83 8.47z" fill="none"/><path d="m182.01 68.21v31.01h31.34v-31.01zm19.42 24.34-3.31-4.81-2.83 4.81h-5.4l5.54-8.73-5.73-8.32h5.59l3.22 4.69 2.76-4.69h5.4l-5.47 8.59 5.83 8.47h-5.59z" fill="none"/><g fill="#fff"><path d="m184.97 66.97c-.15.18-.28.36-.44.53-.34.36-.55.31-.7-.19-.28-.91.05-1.78.93-2.36.07.37.14.74.21 1.1z" fill-rule="evenodd"/><path d="m82.14 46.4v-25.97h16.44v4.35h-11.57v6.13h9.96v4.45h-10v11.03h-4.84" fill-rule="evenodd"/><path d="m99.41 63.4c.46-.76 1.04-1.48 1.38-2.3.6-1.4 1.69-2.07 3.11-1.77.15.02.33 0 .48-.08 1.14-.57 2.26 0 2.61.88.32.81.44 1.69.63 2.53.05.2.05.4.08.76.66-.85 1.34-1.5 1.56-2.48.22-1 .59-1.94 1.35-2.69 1.04-1.01 2.71-.91 3.63.24.06.07.11.16.26.35.03-.38.04-.63.07-.88.16-1.42.32-2.84.51-4.27.05-.39.18-.79.7-.73.51.06.6.48.54.91-.27 1.82-.68 3.61-.82 5.43-.15 1.83-.1 3.66-.06 5.49 0 .38.3.75.49 1.14.04.06.19.12.29.11.49-.05.63.3.68.67.05.43-.13.78-.57.95-.41.15-.77.06-.93-.32-.29-.78-.5-1.59-.75-2.38-.05-.16-.09-.34-.16-.6-.3.68-.52 1.26-.81 1.82-.39.75-.86 1.43-1.73 1.75-.84.33-1.53.17-2.06-.56-.69-.93-.86-2.02-.92-3.13 0-.17-.02-.33-.09-.54-.43.9-1.45 1.24-1.78 2.28-.42 1.31-1.43 2.11-2.87 2.17-1.32.06-2.3-.63-2.89-1.74-.44-.83-.68-1.76-.98-2.54-.37.36-.88.81-1.35 1.3-.13.14-.16.39-.23.59-.48 1.25-1.26 2.18-2.65 2.4-1.23.19-2.18-.3-2.92-1.22-.29-.36-.55-.78-.72-1.22-.58-1.46-.65-2.94-.17-4.44.51-1.55 1.55-2.17 3.16-1.91.14.01.3-.03.44-.09 1.16-.49 2.21-.16 2.7 1.01.31.76.4 1.61.57 2.43.04.18 0 .38 0 .57l.23.11m15.03-2.97h-.16c-.21-.2-.46-.37-.6-.61-.7-1.06-1.93-1.19-2.76-.27-.2.22-.38.48-.52.75-.75 1.69-.86 3.42-.28 5.18.19.53.41 1.16 1.05 1.25.68.11 1.14-.38 1.49-.89 1.15-1.63 1.54-3.5 1.77-5.41zm-19.53.35c-.69-.12-1.14.07-1.47.54-1.16 1.63-.49 4.42 1.28 5.36 1.18.63 2.55.09 2.97-1.22-1.26.13-2.3-.18-2.9-1.37-.54-1.08-.7-2.17.11-3.31zm8.49-.12c-1.01.07-1.38.3-1.69.98-.74 1.6-.34 3.49.98 4.65 1.23 1.07 2.79.73 3.49-.83-1.28.09-2.32-.24-2.94-1.44-.56-1.09-.64-2.2.16-3.36zm-4.91 2.46c-.15-.61-.23-1.26-.46-1.86-.43-1.08-1.03-1.2-1.88-.43l-.09.06c-.61.5-.89 1.53-.6 2.22.3.72 1.2 1.18 2.04 1.07.86-.11.91-.17.99-1.06zm8.35-.24c0-.72-.14-1.52-.66-2.2-.42-.56-.99-.57-1.43-.05-.07.09-.15.16-.24.24-.58.46-.87 1.39-.65 2.05.24.74.9 1.2 1.75 1.22 1.12.02 1.24-.1 1.22-1.26z" fill-rule="evenodd"/><path d="m80.39 62.75c-.49.92-1 1.76-1.82 2.38-.2.17-.31.46-.42.71-.5 1.3-1.29 2.23-2.77 2.43-1.31.17-2.28-.43-2.97-1.45-1.24-1.85-1.36-3.86-.53-5.9.48-1.22 1.63-1.75 2.93-1.47.14.03.33-.01.48-.07 1.07-.47 2.13-.2 2.6.89.35.77.44 1.66.63 2.52.04.2.04.4.07.75.71-.85 1.44-1.5 1.32-2.63-.06-.48.04-.98.11-1.47.05-.34.16-.7.66-.59.58.1.8.36.72.87-.08.49-.14.98-.2 1.47l.14.02c.17-.46.34-.92.51-1.39.49-1.26 1.05-1.07 1.98-.26.33.28.27.73-.01 1.09-.27.33-.6.25-.91 0-.08-.07-.2-.1-.45-.21-.33 1.35-.72 2.61-.94 3.93-.17.92-.1 1.88-.14 2.84 0 .21.05.45-.03.62-.09.21-.31.33-.49.48-.12-.15-.34-.31-.37-.49-.06-.77-.09-1.56-.09-2.34-.02-.91 0-1.82 0-2.74m-6.07-1.96c-.87-.02-1.34.28-1.65.86-.85 1.59-.35 3.83 1.1 4.9 1.22.91 2.85.44 3.3-.99-1.25.13-2.29-.21-2.9-1.39-.58-1.09-.7-2.2.15-3.38zm3.44 2.32.14-.05c-.24-.72-.39-1.45-.72-2.11-.38-.74-1.01-.75-1.55-.16l-.16.17c-.64.54-.92 1.42-.66 2.14.27.74.96 1.17 1.85 1.17 1 0 1.13-.12 1.1-1.15z" fill-rule="evenodd"/><path d="m89.75 63.07c1.1.42 1.1 1.4 1.22 2.26.35 2.41.19 4.79-.42 7.17-.13.51-.22 1.17-.97 1.14-.73-.03-.86-.68-.93-1.2-.17-1.44-.26-2.92-.37-4.38-.03-.44.05-.89.02-1.32 0-.19-.13-.4-.2-.6-.05-.15-.17-.32-.16-.47.11-.93.23-1.85.36-2.78.02-.08.1-.15.14-.24.15-.35.37-.7.42-1.06.36-2.25.61-4.53 1.39-6.71.09-.26.2-.5.28-.75.2-.53.64-.69 1.1-.53.24.09.46.48.53.76.29 1.28.03 2.53-.28 3.79-.42 1.74-1.11 3.36-2.12 4.93m-.13 1.25-.17.05c-.04.14-.13.27-.13.41-.05 1.89-.12 3.77-.11 5.67 0 .52.23 1.04.35 1.57l.21-.04c.56-2.25.83-4.52.26-6.82-.06-.3-.27-.57-.42-.85zm.19-3.48c1.11-1.25 1.98-5.11 1.32-5.81-.8 1.87-.99 3.86-1.32 5.81z" fill-rule="evenodd"/><path d="m161.34 65.13c-.34.39-.64.81-1.03 1.12-.85.72-1.9.44-2.23-.63-.16-.56-.18-1.21-.11-1.79.18-1.35.83-2.47 1.92-3.29.45-.32 1.05-.49 1.69-.77 0-.02-.01-.23.06-.39.1-.24.24-.5.43-.64.44-.29.72-.1.68.42-.08 1.2-.24 2.41-.25 3.61 0 2.08.09 4.16.12 6.24 0 .55-.02 1.12-.16 1.66-.52 2.14-2.3 3.13-4.54 2.54-1.01-.26-1.9-.73-2.53-1.57-.45-.59-.76-1.25-.33-1.96.13-.22.49-.32.75-.47.08.23.23.45.23.67.01 1.14.83 2.07 2.13 2.35 2 .44 3.31-.55 3.36-2.62.04-1.5.01-3.01.01-4.53h-.2m.26-4.1c-1.81-.08-3.03 2.95-2.45 4.06.16.31.46.42.7.19.36-.35.79-.72.95-1.17.34-.98.53-2 .8-3.07z" fill-rule="evenodd"/><path d="m63.12 61.89c0-.87.03-1.73-.01-2.59-.02-.24-.28-.46-.3-.72-.09-1.02-.14-2.03-.2-3.15-.95.06-2.03.06-3.07.18-.84.1-1.66.29-2.48.44-.45.1-.91-.08-.92-.41-.02-.5.39-.58.75-.61 1.51-.08 3.02-.19 4.53-.22 2.52-.09 5.05-.15 7.56-.2.72-.02 1.46.05 2.18.05.36 0 .72-.11 1.08-.08.26.03.5.23.75.35-.21.29-.37.7-.65.83-.32.14-.75.01-1.12.02-.57 0-1.13.06-1.7.02-.29-.02-.57-.14-.85-.25-.15-.06-.29-.22-.42-.22-1.52-.02-3.03-.01-4.62.05.56.49.3 1.04.29 1.58-.02 1.47-.01 2.95-.02 4.42 0 .3.08.47.42.45 1.38-.12 2.77-.22 4.16-.34h.11c.28.08.79.16.81.28.04.4-.2.68-.69.71-.72.04-1.41.21-2.19.03-.72-.18-1.55.03-2.33.1-.1.01-.25.24-.24.37.02 1.34.09 2.67.15 4 .02.37.07.72.06 1.08 0 .13-.17.35-.28.36-.16.02-.41-.09-.46-.2-.13-.4-.24-.82-.24-1.22-.03-1.41 0-2.82 0-4.31-.68.1-1.28.19-1.87.28l-.16.05c-.48.09-.87-.13-.87-.49 0-.5.39-.55.76-.58.29-.02.59.02.87.02.35 0 .69-.04 1.04-.05.04 0 .07 0 .2-.04" fill-rule="evenodd"/><path d="m179.52 59.29c.17-1.52.34-3 .52-4.47.02-.16.06-.29.12-.45.1-.27.1-.69.57-.64.33.03.67.67.61 1.04-.24 1.27-.54 2.54-.7 3.84-.29 2.28-.45 4.57-.18 6.86.03.24.14.48.21.73l.21.03c.2-.33.39-.66.57-.99.1-.17.16-.36.26-.51.16-.28.36-.22.45.04.07.21.11.48.03.66-.29.63-.6 1.28-1 1.85-.37.52-.97.46-1.27-.11-.31-.55-.47-1.18-.69-1.78-.23.31-.49.71-.81 1.04-.39.43-.85.82-1.49.69-.7-.16-1.01-.71-1.11-1.34-.38-2.26.16-4.33 1.67-6.07.6-.7 1.2-.79 2.02-.44m-.03 1.46c-.18-.04-.35-.03-.44-.13-.52-.44-.71-.44-1.1.12-.62.88-.93 1.88-1.04 2.93-.07.56-.08 1.15.02 1.7.1.62.52.7.97.25.1-.1.21-.22.28-.34.81-1.41 1.16-2.94 1.32-4.53z" fill-rule="evenodd"/><path d="m129.81 61.87c-.13.23-.33.46-.39.71-.39 1.4-.73 2.83-1.11 4.24-.06.21-.21.39-.31.58-.16-.21-.46-.41-.48-.62-.12-1.55-.3-3.1-.21-4.64.12-2.42.43-4.82.65-7.24l.02-.11c.13-.33.08-.84.65-.79.37.05.71.71.61 1.14-.56 2.34-.77 4.71-.9 7.1 0 .11 0 .22.1.36.15-.3.28-.63.46-.91.27-.41.54-.84.9-1.17.18-.17.61-.23.83-.14.21.11.4.47.41.72.1 1.5.15 2.98.23 4.47.02.24.09.47.13.71l.17.06c.34-.51.68-1.02 1.02-1.56.45.34.38.76.23 1.09-.24.54-.51 1.07-.85 1.54-.47.66-1.27.57-1.45-.2-.27-1.13-.34-2.3-.46-3.46-.06-.59-.01-1.2-.01-1.81l-.23-.07" fill-rule="evenodd"/><path d="m137.15 65.49c-.33.42-.61.84-.97 1.21-.4.45-.91.72-1.53.54s-.86-.69-1-1.29c-.4-1.83.81-4.99 2.34-6.06.52-.35 1.06-.58 1.71-.38 1.08.33 1.47 1.62.75 2.48-.09.12-.19.3-.19.45.03 1.09.07 2.19.14 3.27.01.2.23.39.35.6.15-.15.35-.29.46-.46.16-.27.27-.58.41-.87.05-.1.18-.22.23-.21.11.04.24.16.25.26.03.26.06.55-.04.77-.21.53-.45 1.06-.77 1.53-.5.7-1.29.61-1.62-.18-.23-.5-.35-1.07-.52-1.66m-2.5-.38c.09.19.18.67.46.81.46.23.73-.26.98-.59.07-.11.14-.23.21-.35.53-1.04.82-2.17.95-3.32.02-.19.15-.37.23-.54.05-.11.16-.28.12-.33-.09-.11-.29-.28-.38-.25-.33.12-.71.22-.92.47-.99 1.1-1.44 2.45-1.64 4.11z" fill-rule="evenodd"/><path d="m166.29 59.94c2.15 1.6 2.92 3.66 2.21 5.85-.15.46-.4.92-.71 1.3-.89 1.07-2.24.97-3.07-.15-1.15-1.59-1.06-4.16.22-5.79.13-.15.25-.29.37-.43-.29-.2-.78-.16-.68-.71.08-.48.37-.77.81-.84.9-.13 1.81-.24 2.71-.34.3-.03.56.1.51.46-.04.32-.07.7-.57.68-.55-.02-1.11 0-1.79 0m-.05 1.39c-1.5.9-1.54 3.95-.57 5.02.45.5 1.05.44 1.44-.14.92-1.35.47-3.86-.87-4.87z" fill-rule="evenodd"/><path d="m172.2 59.93c2.16 1.53 2.92 3.7 2.17 5.94-.12.36-.31.7-.53 1.01-.95 1.29-2.41 1.23-3.32-.09-1-1.47-.94-3.91.14-5.42.16-.22.33-.42.5-.63l-.05-.09c-.24-.17-.68-.14-.6-.63.07-.43.31-.76.75-.85.92-.15 1.83-.27 2.77-.37.31-.04.65.09.55.53-.08.34-.18.69-.7.62-.5-.06-1.01 0-1.66 0m-.06 1.33c-1.33 1.03-1.67 3.62-.65 4.95.51.68 1.2.58 1.62-.21.79-1.45.34-3.67-.98-4.74z" fill-rule="evenodd"/><path d="m145.73 61.52c-.77-.51-2.42-.46-2.96-.03l-.12.24c.03 1.33.05 2.67.13 4 .02.28.27.67.52.77.41.19.64-.24.81-.55.27-.49.51-1.03.75-1.54.09-.17.17-.34.27-.56.52.36.49.88.33 1.23-.36.77-.74 1.58-1.3 2.19-.78.89-1.88.68-2.28-.42-.29-.81-.38-1.7-.48-2.58-.07-.69-.01-1.39-.01-2.1l-.15-.02c-.21.02-.43.07-.65.09.06-.27.05-.73.21-.8.96-.42.83-1.33 1.06-2.09.2-.65.5-1.27.82-1.87.07-.15.38-.18.57-.25.02.21.08.42.04.62-.16.83-.36 1.67-.55 2.51.82-.12 1.55-.3 2.27-.34.33-.02.87.14.97.36.13.26-.14.69-.27 1.13" fill-rule="evenodd"/><path d="m123.6 57.33c-.11.5-.22 1.02-.31 1.53-.11.52-.2 1.03-.31 1.58.75-.12 1.46-.23 2.16-.34.13-.02.28-.04.4 0 .25.1.68.24.69.38.02.33-.17.68-.3 1.08-1.02-.66-1.92-.3-2.8-.03-.12.03-.26.23-.26.35 0 1.24-.03 2.5.05 3.72.02.36.31.88.61 1.01.46.18.68-.37.88-.72.26-.44.46-.92.68-1.39.07-.16.13-.34.21-.53.52.24.5.66.42 1.01-.23 1.04-.75 1.96-1.62 2.62-.75.57-1.66.32-1.98-.64-.31-.91-.39-1.89-.5-2.85-.07-.62-.01-1.26-.01-1.91l-.2.06c-.2.03-.39.05-.6.09.02-.24.03-.48.08-.71.03-.09.15-.21.24-.24.76-.24.75-.88.87-1.5.15-.66.34-1.33.6-1.94.13-.31.49-.52.75-.78.09.05.18.12.26.15" fill-rule="evenodd"/><path d="m149.78 67.97c-.35-.14-.72-.22-1.04-.4-.33-.2-.44-.54-.25-.9s.48-.27.8-.18c1.24.42 2.32-.19 2.63-1.44.16-.65-.09-1.21-.73-1.43-.46-.15-.96-.24-1.44-.34-1.07-.22-1.53-.92-1.19-1.93.33-.99 1-1.72 1.93-2.18.33-.15.71-.22.92.15.25.39-.09.61-.37.81-.36.28-.74.55-1.04.88-.6.67-.44 1.09.43 1.26.29.06.56.1.84.18 1.51.37 2.13 1.45 1.71 2.94-.4 1.39-1.79 2.47-3.2 2.57" fill-rule="evenodd"/><path d="m146.63 57.07c.3-.38.59-.67.78-1 .18-.34.32-.74.37-1.12.06-.41.57-.87.97-.72.14.06.29.27.3.42.03.68-1.42 2.4-2.12 2.52-.06 0-.13-.06-.29-.1" fill-rule="evenodd"/><path d="m55.98 6.51c.01 1.98.03 3.98.03 5.97v4.2c-5.67 1.11-9.81 4.22-12.56 9.39-.02-.28-.04-.41-.04-.54v-18.68c0-.11.02-.23.03-.34h12.53" fill-rule="evenodd"/><path d="m41.46 40.7v19.6h-12.6v-.57c0-2.98 0-5.98-.02-8.96 0-.46.11-.63.6-.74 5.33-1.15 9.27-4.16 11.82-8.97.04-.09.08-.18.19-.36" fill-rule="evenodd"/><path d="m26.15 17.77c-8.66 0-15.67 7.01-15.67 15.66s7.01 15.68 15.67 15.68 15.67-7.02 15.67-15.68-7.02-15.66-15.67-15.66m0 20.05c-2.42 0-4.38-1.96-4.38-4.38s1.96-4.38 4.38-4.38 4.38 1.97 4.38 4.38-1.97 4.38-4.38 4.38z" fill-rule="evenodd"/><path d="m58.76 17.77c-8.66 0-15.67 7.01-15.67 15.66s7.01 15.68 15.67 15.68 15.68-7.02 15.68-15.68-7.03-15.66-15.68-15.66m0 20.05c-2.41 0-4.38-1.96-4.38-4.38s1.97-4.38 4.38-4.38 4.38 1.97 4.38 4.38-1.96 4.38-4.38 4.38z" fill-rule="evenodd"/><path d="m113.33 19.93c-7.89 0-11.76 5.9-11.76 13.48s3.86 13.48 11.76 13.48 11.78-5.89 11.78-13.48-3.87-13.48-11.78-13.48m0 22.51c-4.88 0-6.72-4.43-6.72-9.03s1.84-9.02 6.72-9.02 6.73 4.41 6.73 9.02-1.83 9.03-6.73 9.03z"/><path d="m139.51 19.93c-7.91 0-11.77 5.9-11.77 13.48s3.86 13.48 11.77 13.48 11.76-5.89 11.76-13.48-3.86-13.48-11.76-13.48m0 22.51c-4.9 0-6.73-4.43-6.73-9.03s1.83-9.02 6.73-9.02 6.72 4.41 6.72 9.02-1.83 9.03-6.72 9.03z"/><path d="m154.9 20.38h9.91c5.96 0 10.42 4.24 10.42 12.89 0 7.55-3.41 13.18-10.42 13.18h-9.91zm4.93 21.65h4.62c2.93 0 5.73-1.61 5.73-8.22s-1.61-8.97-6.63-8.97h-3.72v17.18z"/><path d="m133.97 9c0-1.59 1.13-2.69 2.78-2.69 1.15 0 2.32.5 2.54 2.06h-1.29c-.19-.62-.65-.89-1.25-.89-.82 0-1.44.62-1.44 1.52s.62 1.52 1.44 1.52c.6 0 1.06-.28 1.25-.91h1.29c-.22 1.57-1.39 2.07-2.54 2.07-1.65 0-2.78-1.1-2.78-2.69z"/><path d="m139.99 9c0-1.59 1.12-2.69 2.8-2.69s2.79 1.09 2.79 2.69-1.12 2.69-2.79 2.69-2.8-1.1-2.8-2.69zm4.26 0c0-.93-.64-1.52-1.46-1.52s-1.46.59-1.46 1.52.64 1.52 1.46 1.52 1.46-.59 1.46-1.52z"/><path d="m146.34 6.48h1.72l1.1 3.31h.1l1.1-3.31h1.72v5.04h-1.3v-2.76h-.11l-.95 2.76h-1.04l-.95-2.76h-.11v2.76h-1.3v-5.04z"/><path d="m152.93 6.48h2.71c1.36 0 2.11.63 2.11 1.88s-.76 1.89-2.1 1.89h-1.36v1.27h-1.36zm2.61 2.64c.53 0 .86-.26.86-.76s-.33-.76-.85-.76h-1.26v1.52z"/><path d="m161.75 10.73h-2.37l-.28.79h-1.4l1.92-5.04h1.89l1.92 5.04h-1.4zm-.36-1.01-.7-1.97h-.25l-.71 1.97h1.65z"/><path d="m164.09 6.48h1.56l2.12 3.17h.12v-3.17h1.32v5.04h-1.53l-2.15-3.17h-.13v3.17h-1.32v-5.04z"/><path d="m173.26 9.92v1.59h-1.35v-1.6l-2.08-3.44h1.43l1.25 2.13h.13l1.26-2.13h1.43l-2.07 3.44z"/><path d="m86.15 10.56h-2.37l-.28.79h-1.4l1.92-5.04h1.89l1.92 5.04h-1.4zm-.36-1.01-.7-1.97h-.25l-.71 1.97h1.65z"/><path d="m131.21 6.6s-.06-.02-.11-.02h-.08v.19h.08s.07 0 .09-.01c.04-.01.05-.04.05-.08s-.01-.06-.03-.08m-.1-.08c.06 0 .11 0 .14.02.05.02.08.07.08.13 0 .05-.02.08-.05.1-.02.01-.04.02-.07.03.04 0 .07.02.09.05s.03.05.03.08v.04s0 .02 0 .04v.03s-.09 0-.09 0v-.02s0-.04 0-.04c0-.06-.02-.1-.05-.12-.02-.01-.05-.02-.1-.02h-.07v.2h-.09v-.52zm-.28-.03c-.08.08-.12.17-.12.29s.04.21.12.29.17.12.29.12.21-.04.29-.12.12-.18.12-.29-.04-.21-.12-.29-.17-.12-.29-.12-.21.04-.29.12m.62.62c-.09.09-.2.14-.33.14s-.24-.05-.33-.14-.14-.2-.14-.33.05-.24.14-.33.2-.14.33-.14.24.05.33.14.14.2.14.33-.05.24-.14.33"/><path d="m92.73 13.13c-.41 0-.76-.16-1.03-.47-.38-.44-.53-1.1-.47-1.52.11-.8.69-.82.75-.82.35 0 .7.27.7.73 0 .36-.17.6-.49.71-.08.03-.15.08-.15.13 0 .41.33.69.62.69.47 0 .75-.49.75-1.3v-6.79c0-.13-.02-.2-.06-.2-.01 0-.03 0-.04 0 0 0-.01 0-.02 0 0 0-.02 0-.03 0-.05 0-.09-.02-.11-.06s-.02-.08-.02-.09v-.28c0-.09.07-.15.16-.15h1.28c.09 0 .16.07.16.15v.28c0 .07-.04.15-.14.15 0 0-.02 0-.03 0h-.02s-.03 0-.04 0c-.04 0-.06.07-.06.2v6.06c0 1.01-.18 1.7-.54 2.11-.28.32-.65.47-1.18.47"/><path d="m100.98 12.51c-.09 0-.16-.07-.16-.15v-.28c0-.07.04-.15.14-.15h.03.02s.03 0 .04 0c.04 0 .06-.07.06-.2v-3.85c0-.49-.14-1-.38-1-.7 0-.75 1-.75 1.3v3.54c0 .13.02.2.06.2h.04.02.03c.09 0 .14.08.14.15v.28c0 .09-.07.15-.16.15h-1.28c-.09 0-.16-.07-.16-.15v-.28c0-.07.04-.15.14-.15h.03.02s.03 0 .04 0c.04 0 .06-.07.06-.2v-7.23c0-.13-.02-.2-.06-.2-.01 0-.03 0-.04 0 0 0-.01 0-.02 0 0 0-.02 0-.03 0-.05 0-.09-.02-.11-.06s-.02-.08-.02-.09v-.28c0-.08.07-.15.16-.15h.98c.09 0 .16.07.16.15v2.71s0 .01 0 .02c0 0 .02-.01.03-.02.11-.08.35-.24.67-.24 1.27 0 1.46 1.25 1.46 1.99v3.41c0 .13.02.2.06.2h.04.02.03c.09 0 .14.08.14.15v.28c0 .09-.07.15-.16.15h-1.28z"/><path d="m105.13 12.51c-.09 0-.16-.07-.16-.15v-.28c0-.07.04-.15.14-.15h.03.02s.03 0 .04 0c.02 0 .07 0 .07-.2v-3.85c0-.49-.14-1-.39-1-.7 0-.75 1-.75 1.3v3.54c0 .13.02.2.06.2h.04.02.03c.09 0 .14.08.14.15v.28c0 .09-.07.15-.16.15h-1.28c-.09 0-.16-.07-.16-.15v-.28c0-.07.04-.15.14-.15h.03.02s.03 0 .04 0c.04 0 .06-.07.06-.2v-4.52c0-.13-.02-.2-.06-.2-.01 0-.03 0-.04 0 0 0-.01 0-.02 0 0 0-.02 0-.03 0-.05 0-.09-.02-.11-.06s-.02-.08-.02-.09v-.28s.02-.08.05-.11.07-.05.11-.05h.98s.08.02.11.04c.03.03.05.07.05.11v.02s.02-.01.03-.02c.11-.08.35-.24.67-.24 1.27 0 1.46 1.25 1.46 1.99v3.41c0 .13.02.2.06.2h.04.02.03c.09 0 .14.08.14.15v.28c0 .09-.07.15-.16.15h-1.28z"/><path d="m108.2 12.6c-.32 0-.55-.16-.67-.24-.01 0-.03-.02-.03-.02v.02c0 .09-.07.16-.15.16h-.22c-.08 0-.15-.07-.15-.16v-1.46c0-.09.07-.16.15-.16h.28c.07 0 .15.05.15.16 0 .48.08 1.12.75 1.12.45 0 .65-.34.65-.65 0-.48-.56-.95-.96-1.3-.1-.08-.19-.16-.27-.23-.45-.42-.9-.96-.9-1.84 0-.51.13-1.69 1.35-1.69.32 0 .55.16.67.24.01 0 .03.02.03.02s0-.01 0-.02c0-.09.07-.16.15-.16h.22c.08 0 .15.07.15.16v1.46c0 .09-.07.16-.15.16h-.28c-.07 0-.15-.05-.15-.16 0-.48-.08-1.12-.75-1.12-.24 0-.52.11-.52.65 0 .49.41.82.8 1.15.15.12.28.23.4.36l.06.07c.42.43.89.91.89 1.96 0 .6-.41 1.54-1.5 1.54"/><path d="m118.96 12.51c-.17 0-.19-.12-.21-.17 0-.03-.3-1.52-.68-3.45-.18-.91-.32-1.62-.33-1.68-.03-.15-.19-.2-.26-.2-.11 0-.16-.08-.16-.15v-.28s.02-.08.05-.11.07-.05.11-.05h1.35s.08.02.11.04c.03.03.05.07.05.11v.28c0 .08-.05.15-.15.15s-.02 0-.03.02c-.01.01-.04.06-.02.17.02.08.17.83.32 1.56.13.61.25 1.18.27 1.28.02-.1.14-.67.26-1.27.15-.74.31-1.5.33-1.57.02-.11-.01-.15-.03-.17 0-.01-.02-.02-.03-.02-.1 0-.15-.08-.15-.15v-.28s.02-.08.05-.11.07-.04.11-.04h1.02s.08.02.11.05.05.07.05.11v.28c0 .08-.05.15-.16.15-.07 0-.23.05-.26.2-.01.06-.15.77-.33 1.68-.38 1.94-.67 3.42-.68 3.45-.01.05-.04.17-.21.17h-.48z"/><path d="m123.6 12.51c-.09 0-.16-.07-.16-.15v-.28c0-.07.04-.15.14-.15h.03.02s.03 0 .04 0c.04 0 .06-.07.06-.2v-7.24c0-.13-.02-.2-.06-.2-.01 0-.03 0-.04 0 0 0-.01 0-.02 0 0 0-.02 0-.03 0-.05 0-.09-.02-.11-.06s-.02-.08-.02-.09v-.28c0-.08.07-.15.16-.15h.98c.09 0 .16.07.16.15v7.87c0 .2.05.2.07.2h.04.02.03c.09 0 .14.08.14.15v.28c0 .09-.07.15-.16.15h-1.28z"/><path d="m129 6.95c-.37 0-.54.46-.54 1.45v.7s.02.05.05.05h.97s.05-.02.05-.05v-.7c0-.99-.17-1.45-.54-1.45m0 5.66c-.4 0-.8-.18-1.09-.5-.32-.35-.5-.83-.5-1.35v-2.58c0-.53.18-1.01.5-1.35.3-.32.7-.5 1.09-.5s.8.18 1.09.5c.32.35.5.83.5 1.35v1.49c0 .06-.05.11-.11.11h-2.01s0 0 0 0v.9c0 1.26.32 1.35.75 1.35.08 0 .81-.04.81-1.31 0-.08.07-.15.16-.15h.26c.08 0 .15.07.15.16 0 1.18-.6 1.89-1.59 1.89"/><path d="m111.72 6.95c-.37 0-.54.46-.54 1.45v2.09c0 .99.17 1.45.54 1.45s.54-.46.54-1.45v-2.09c0-.99-.17-1.45-.54-1.45m0 5.66c-.4 0-.8-.18-1.09-.5-.32-.35-.5-.83-.5-1.35v-2.58c0-.53.18-1.01.5-1.35.3-.32.7-.5 1.09-.5s.8.18 1.09.5c.32.35.5.83.5 1.35v2.58c0 .53-.18 1.01-.5 1.35-.3.32-.7.5-1.09.5"/><path d="m96.7 6.95c-.37 0-.54.46-.54 1.45v2.09c0 .99.17 1.45.54 1.45s.54-.46.54-1.45v-2.09c0-.99-.17-1.45-.54-1.45m0 5.66c-.4 0-.8-.18-1.09-.5-.32-.35-.5-.83-.5-1.35v-2.58c0-.53.18-1.01.5-1.35.3-.32.7-.5 1.09-.5s.8.18 1.09.5c.32.35.5.83.5 1.35v2.58c0 .53-.18 1.01-.5 1.35-.3.32-.7.5-1.09.5"/><path d="m122.22 5.96c-.33 0-.6-.3-.6-.67s.27-.67.6-.67.6.3.6.67-.27.67-.6.67m-.64 6.55c-.09 0-.16-.07-.16-.15v-.28c0-.07.04-.15.14-.15h.03.02s.03 0 .04 0c.04 0 .06-.07.06-.2v-4.53c0-.13-.02-.2-.06-.2-.01 0-.03 0-.04 0 0 0-.01 0-.02 0 0 0-.02 0-.03 0-.05 0-.09-.02-.11-.06s-.02-.08-.02-.09v-.28s.02-.08.05-.11.07-.05.11-.05h.98s.08.02.11.04c.03.03.05.07.05.11v5.16c0 .2.05.2.07.2h.04.02.03c.09 0 .14.08.14.15v.28c0 .09-.07.15-.16.15h-1.28z"/><path d="m116.03 12.51c-.09 0-.16-.07-.16-.15v-.28c0-.07.04-.15.14-.15h.03.02s.03 0 .04 0c.02 0 .07 0 .07-.2v-3.85c0-.49-.14-1-.39-1-.7 0-.75 1-.75 1.3v3.54c0 .13.02.2.06.2h.04.02.03c.09 0 .14.08.14.15v.28c0 .09-.07.15-.16.15h-1.28c-.09 0-.16-.07-.16-.15v-.28c0-.07.04-.15.14-.15h.03.02s.03 0 .04 0c.04 0 .06-.07.06-.2v-4.52c0-.13-.02-.2-.06-.2-.01 0-.03 0-.04 0 0 0-.01 0-.02 0 0 0-.02 0-.03 0-.05 0-.09-.02-.11-.06s-.02-.08-.02-.09v-.28s.02-.08.05-.11.07-.05.11-.05h.98s.08.02.11.04c.03.03.05.07.05.11v.02s.02-.01.03-.02c.11-.08.35-.24.67-.24 1.27 0 1.46 1.25 1.46 1.99v3.41c0 .13.02.2.06.2h.04.02.03c.09 0 .14.08.14.15v.28c0 .09-.07.15-.16.15h-1.28z"/><path d="m125.59 12.51c-.09 0-.16-.07-.16-.15v-.28c0-.07.04-.15.14-.15h.03.02s.03 0 .04 0c.04 0 .06-.07.06-.2v-7.24c0-.13-.02-.2-.06-.2-.01 0-.03 0-.04 0 0 0-.01 0-.02 0 0 0-.02 0-.03 0-.05 0-.09-.02-.11-.06s-.02-.08-.02-.09v-.28c0-.08.07-.15.16-.15h.98c.09 0 .16.07.16.15v7.87c0 .2.05.2.07.2h.04.02.03c.09 0 .14.08.14.15v.28c0 .09-.07.15-.16.15h-1.28z"/></g></svg>